<?xml version="1.0" encoding="utf-8"?>
<!-- Generator: Adobe Illustrator 22.1.0, SVG Export Plug-In . SVG Version: 6.00 Build 0)  -->
<svg version="1.1" id="Layer_2" xmlns="http://www.w3.org/2000/svg" xmlns:xlink="http://www.w3.org/1999/xlink" x="0px" y="0px"
	 viewBox="0 0 512 512" style="enable-background:new 0 0 512 512;" xml:space="preserve">
<style type="text/css">
	.st0{fill:#CCCCCC;}
</style>
<path class="st0" d="M110.8,0H4.4C2,0,0,2,0,4.4v106.4c0,2.4,2,4.4,4.4,4.4H34c2.4,0,4.4-2,4.4-4.4V38.4h72.4c2.4,0,4.4-2,4.4-4.4
	V4.4C115.2,2,113.2,0,110.8,0z"/>
<path class="st0" d="M401.2,512h106.4c2.4,0,4.4-2,4.4-4.4V401.2c0-2.4-2-4.4-4.4-4.4H478c-2.4,0-4.4,2-4.4,4.4v72.4h-72.4
	c-2.4,0-4.4,2-4.4,4.4v29.6C396.8,510,398.8,512,401.2,512z"/>
<path class="st0" d="M0,401.2l0,106.4c0,2.4,2,4.4,4.4,4.4h106.4c2.4,0,4.4-2,4.4-4.4V478c0-2.4-2-4.4-4.4-4.4H38.4v-72.4
	c0-2.4-2-4.4-4.4-4.4H4.4C2,396.8,0,398.8,0,401.2z"/>
<path class="st0" d="M512,110.8V4.4c0-2.4-2-4.4-4.4-4.4L401.2,0c-2.4,0-4.4,2-4.4,4.4V34c0,2.4,2,4.4,4.4,4.4h72.4v72.4
	c0,2.4,2,4.4,4.4,4.4h29.6C510,115.2,512,113.2,512,110.8z"/>
</svg>
