<svg aria-hidden="true" style="position: absolute; width: 0; height: 0; overflow: hidden;" version="1.1" xmlns="http://www.w3.org/2000/svg" xmlns:xlink="http://www.w3.org/1999/xlink">
<defs>
<symbol id="icon-PLT_logo_vierkant_uitgebreid" viewBox="0 0 32 32">
<title>PLT_logo_vierkant_uitgebreid</title>
<path d="M7.469 24.98h2.188c0.047 0 0.089 0.018 0.122 0.050 0.036 0.036 0.050 0.074 0.050 0.122v0.971c0 0.047-0.018 0.089-0.050 0.122-0.036 0.036-0.074 0.050-0.122 0.050h-3.746c-0.048 0-0.089-0.018-0.122-0.050-0.036-0.036-0.050-0.074-0.050-0.122v-4.144c0-0.047 0.018-0.089 0.050-0.122 0.036-0.036 0.074-0.050 0.122-0.050h1.386c0.048 0 0.089 0.018 0.122 0.050 0.036 0.036 0.050 0.074 0.050 0.122v3.001z"></path>
<path d="M11.806 26.295h-1.214c-0.039 0-0.071-0.015-0.098-0.042s-0.042-0.053-0.042-0.080c0-0.027 0.003-0.045 0.006-0.056l1.398-4.099c0.039-0.142 0.134-0.211 0.288-0.211h1.784c0.154 0 0.249 0.071 0.288 0.211l1.398 4.099c0.003 0.012 0.006 0.033 0.006 0.056 0 0.027-0.015 0.053-0.042 0.080s-0.062 0.042-0.098 0.042h-1.214c-0.137 0-0.235-0.071-0.288-0.217l-0.16-0.448h-1.564l-0.16 0.448c-0.053 0.145-0.151 0.217-0.288 0.217zM13.495 24.377l-0.454-1.336-0.454 1.336h0.908z"></path>
<path d="M20.916 24.885c0 0.941-0.603 1.413-1.811 1.413h-2.645c-0.047 0-0.089-0.018-0.122-0.050-0.036-0.036-0.050-0.074-0.050-0.122v-4.147c0-0.047 0.018-0.089 0.050-0.122 0.036-0.036 0.074-0.050 0.122-0.050h2.58c0.609 0 1.057 0.11 1.345 0.329s0.433 0.552 0.433 0.997v0.018c0 0.205-0.056 0.38-0.166 0.525s-0.226 0.237-0.347 0.276c0.166 0.050 0.309 0.163 0.43 0.335 0.122 0.175 0.181 0.374 0.181 0.597zM19.016 23.397c0.045-0.062 0.068-0.131 0.068-0.208s-0.024-0.142-0.068-0.199c-0.045-0.056-0.11-0.083-0.196-0.083h-0.861v0.585h0.861c0.083 0 0.148-0.033 0.196-0.095zM17.959 24.564v0.629h0.929c0.098 0 0.172-0.033 0.223-0.098s0.074-0.14 0.074-0.223v-0.006c0-0.080-0.027-0.151-0.080-0.211s-0.125-0.089-0.214-0.089h-0.932z"></path>
<path d="M6.985 7.418v2.188c0 0.047-0.018 0.089-0.050 0.122-0.036 0.036-0.074 0.050-0.122 0.050h-0.968c-0.048 0-0.089-0.018-0.122-0.050-0.036-0.036-0.050-0.074-0.050-0.122v-3.746c0-0.048 0.018-0.089 0.050-0.122 0.036-0.036 0.074-0.050 0.122-0.050h4.144c0.047 0 0.089 0.018 0.122 0.050 0.036 0.036 0.050 0.074 0.050 0.122v1.386c0 0.048-0.018 0.089-0.050 0.122-0.036 0.036-0.074 0.050-0.122 0.050h-3.004z"></path>
<path d="M5.67 11.758v-1.214c0-0.039 0.015-0.071 0.042-0.098s0.053-0.042 0.080-0.042c0.027 0 0.045 0.003 0.056 0.006l4.099 1.398c0.143 0.039 0.211 0.134 0.211 0.288v1.784c0 0.154-0.071 0.249-0.211 0.288l-4.099 1.398c-0.012 0.003-0.033 0.006-0.056 0.006-0.027 0-0.053-0.015-0.080-0.042s-0.042-0.062-0.042-0.098v-1.214c0-0.137 0.071-0.235 0.217-0.288l0.448-0.16v-1.564l-0.448-0.16c-0.143-0.056-0.217-0.151-0.217-0.288zM7.587 13.444l1.336-0.454-1.336-0.454v0.908z"></path>
<path d="M7.083 20.868c-0.941 0-1.413-0.603-1.413-1.811v-2.642c0-0.047 0.018-0.089 0.050-0.122 0.036-0.036 0.074-0.050 0.122-0.050h4.144c0.047 0 0.089 0.018 0.122 0.050 0.036 0.036 0.050 0.074 0.050 0.122v2.58c0 0.609-0.11 1.057-0.329 1.345s-0.552 0.433-0.997 0.433h-0.018c-0.205 0-0.38-0.056-0.525-0.166s-0.237-0.226-0.276-0.347c-0.050 0.166-0.163 0.309-0.335 0.43-0.175 0.119-0.371 0.178-0.594 0.178zM7.403 17.909h-0.629v0.929c0 0.098 0.033 0.172 0.098 0.223s0.14 0.074 0.223 0.074h0.006c0.080 0 0.151-0.027 0.211-0.080s0.089-0.125 0.089-0.214v-0.932zM8.567 18.965c0.062 0.045 0.131 0.068 0.208 0.068s0.143-0.024 0.199-0.068c0.056-0.045 0.083-0.11 0.083-0.196v-0.861h-0.585v0.861c0.003 0.086 0.033 0.151 0.095 0.196z"></path>
<path d="M24.487 6.997h-2.188c-0.047 0-0.089-0.018-0.122-0.050-0.036-0.036-0.050-0.074-0.050-0.122v-0.968c0-0.048 0.018-0.089 0.050-0.122 0.036-0.036 0.074-0.050 0.122-0.050h3.746c0.047 0 0.089 0.018 0.122 0.050 0.036 0.036 0.050 0.074 0.050 0.122v4.144c0 0.047-0.018 0.089-0.050 0.122-0.036 0.036-0.074 0.050-0.122 0.050h-1.386c-0.047 0-0.089-0.018-0.122-0.050-0.036-0.036-0.050-0.074-0.050-0.122v-3.004z"></path>
<path d="M20.15 5.682h1.214c0.039 0 0.071 0.015 0.098 0.042s0.042 0.053 0.042 0.080c0 0.027-0.003 0.045-0.006 0.056l-1.401 4.099c-0.039 0.143-0.134 0.211-0.288 0.211h-1.784c-0.154 0-0.249-0.071-0.288-0.211l-1.398-4.099c-0.003-0.012-0.006-0.033-0.006-0.056 0-0.027 0.015-0.053 0.042-0.080s0.062-0.042 0.098-0.042h1.214c0.137 0 0.235 0.071 0.288 0.217l0.16 0.448h1.564l0.16-0.448c0.056-0.145 0.154-0.217 0.291-0.217zM18.461 7.599l0.454 1.336 0.454-1.336h-0.908z"></path>
<path d="M11.037 7.092c0-0.941 0.603-1.413 1.811-1.413h2.645c0.047 0 0.089 0.018 0.122 0.050 0.036 0.036 0.050 0.074 0.050 0.122v4.144c0 0.047-0.018 0.089-0.050 0.122-0.036 0.036-0.074 0.050-0.122 0.050h-2.58c-0.609 0-1.057-0.11-1.345-0.329s-0.433-0.552-0.433-0.997v-0.018c0-0.205 0.056-0.38 0.166-0.525s0.226-0.237 0.347-0.276c-0.166-0.050-0.309-0.163-0.43-0.335-0.119-0.172-0.181-0.371-0.181-0.594zM13.996 7.412v-0.629h-0.929c-0.098 0-0.172 0.033-0.223 0.098s-0.074 0.14-0.074 0.223v0.006c0 0.080 0.027 0.151 0.080 0.211s0.125 0.089 0.214 0.089h0.932zM12.94 8.576c-0.045 0.062-0.068 0.131-0.068 0.208s0.024 0.143 0.068 0.199c0.045 0.056 0.11 0.083 0.196 0.083h0.861v-0.585h-0.861c-0.086 0.003-0.151 0.036-0.196 0.095z"></path>
<path d="M24.971 24.555v-2.188c0-0.047 0.018-0.089 0.050-0.122 0.036-0.036 0.074-0.050 0.122-0.050h0.968c0.047 0 0.089 0.018 0.122 0.050 0.036 0.036 0.050 0.074 0.050 0.122v3.746c0 0.047-0.018 0.089-0.050 0.122-0.036 0.036-0.074 0.050-0.122 0.050h-4.144c-0.047 0-0.089-0.018-0.122-0.050-0.036-0.036-0.050-0.074-0.050-0.122v-1.386c0-0.047 0.018-0.089 0.050-0.122 0.036-0.036 0.074-0.050 0.122-0.050h3.004z"></path>
<path d="M26.286 20.218v1.214c0 0.039-0.015 0.071-0.042 0.098s-0.053 0.042-0.080 0.042c-0.027 0-0.045-0.003-0.056-0.006l-4.099-1.398c-0.142-0.039-0.211-0.134-0.211-0.288v-1.784c0-0.154 0.071-0.249 0.211-0.288l4.099-1.398c0.012-0.003 0.033-0.006 0.056-0.006 0.027 0 0.053 0.015 0.080 0.042s0.042 0.062 0.042 0.098v1.214c0 0.137-0.071 0.235-0.217 0.288l-0.448 0.16v1.564l0.448 0.16c0.142 0.056 0.217 0.151 0.217 0.288zM24.368 18.532l-1.336 0.454 1.336 0.454v-0.908z"></path>
<path d="M24.873 11.108c0.941 0 1.413 0.603 1.413 1.811v2.645c0 0.047-0.018 0.089-0.050 0.122-0.036 0.036-0.074 0.050-0.122 0.050h-4.147c-0.047 0-0.089-0.018-0.122-0.050-0.036-0.036-0.050-0.074-0.050-0.122v-2.58c0-0.609 0.11-1.057 0.329-1.345s0.552-0.433 0.997-0.433h0.018c0.205 0 0.38 0.056 0.525 0.166s0.237 0.226 0.276 0.347c0.050-0.166 0.163-0.309 0.335-0.43 0.178-0.122 0.374-0.181 0.597-0.181zM23.389 13.011c-0.062-0.045-0.131-0.068-0.208-0.068s-0.142 0.024-0.199 0.068c-0.056 0.045-0.083 0.11-0.083 0.196v0.861h0.582v-0.861c0-0.086-0.030-0.151-0.092-0.196zM24.552 14.065h0.629v-0.929c0-0.098-0.033-0.172-0.098-0.223s-0.14-0.074-0.223-0.074h-0.006c-0.080 0-0.151 0.027-0.211 0.080s-0.089 0.125-0.089 0.214v0.932z"></path>
<path d="M3.167 0.021h1.181c0.3 0 0.537 0.071 0.712 0.217s0.261 0.332 0.261 0.558c0 0.229-0.074 0.41-0.223 0.543s-0.398 0.202-0.751 0.202h-0.419v0.606c0 0.024-0.009 0.045-0.027 0.059-0.018 0.018-0.036 0.027-0.059 0.027h-0.68c-0.024 0-0.045-0.009-0.059-0.027-0.018-0.018-0.027-0.036-0.027-0.059v-2.039c0-0.024 0.009-0.045 0.027-0.059 0.018-0.018 0.039-0.027 0.062-0.027zM3.933 0.609v0.347h0.401c0.048 0 0.089-0.015 0.119-0.045s0.045-0.071 0.045-0.125c0-0.053-0.015-0.095-0.045-0.131-0.030-0.033-0.068-0.050-0.119-0.050h-0.401z"></path>
<path d="M6.474 1.618h1.262c0.024 0 0.045 0.009 0.059 0.027 0.018 0.018 0.027 0.036 0.027 0.059v0.445c0 0.024-0.009 0.045-0.027 0.059-0.018 0.018-0.036 0.027-0.059 0.027h-1.998c-0.024 0-0.045-0.009-0.059-0.027-0.018-0.018-0.027-0.036-0.027-0.059v-2.042c0-0.024 0.009-0.045 0.027-0.059 0.018-0.018 0.036-0.027 0.059-0.027h1.965c0.024 0 0.045 0.009 0.059 0.027 0.018 0.018 0.027 0.036 0.027 0.059v0.445c0 0.024-0.009 0.045-0.027 0.059-0.018 0.018-0.036 0.027-0.059 0.027h-1.229v0.199h1.057c0.024 0 0.045 0.009 0.059 0.027 0.018 0.018 0.027 0.036 0.027 0.059v0.41c0 0.024-0.009 0.045-0.027 0.059-0.018 0.018-0.036 0.027-0.059 0.027h-1.057v0.199z"></path>
<path d="M10.654 2.137c0.003 0.009 0.006 0.021 0.006 0.036s-0.006 0.030-0.021 0.042c-0.015 0.015-0.030 0.021-0.050 0.021h-0.718c-0.062 0-0.107-0.027-0.134-0.080l-0.279-0.626h-0.264v0.62c0 0.024-0.009 0.045-0.027 0.059-0.018 0.018-0.036 0.027-0.059 0.027h-0.683c-0.024 0-0.045-0.009-0.059-0.027-0.018-0.018-0.027-0.036-0.027-0.059v-2.042c0-0.024 0.009-0.045 0.027-0.059 0.018-0.018 0.036-0.027 0.059-0.027h1.229c0.288 0 0.517 0.068 0.686 0.205s0.252 0.324 0.252 0.558c0 0.288-0.11 0.493-0.332 0.623l0.395 0.73zM9.196 0.609v0.335h0.395c0.047 0 0.083-0.015 0.107-0.045 0.027-0.030 0.039-0.068 0.039-0.116s-0.012-0.086-0.036-0.122c-0.024-0.036-0.059-0.053-0.11-0.053h-0.395z"></path>
<path d="M11.144 0.021h2.010c0.024 0 0.045 0.009 0.059 0.027 0.018 0.018 0.027 0.036 0.027 0.059v0.481c0 0.024-0.009 0.045-0.027 0.059-0.018 0.018-0.036 0.027-0.059 0.027h-1.241v0.202h1.036c0.024 0 0.045 0.009 0.059 0.027 0.018 0.018 0.027 0.036 0.027 0.059v0.478c0 0.024-0.009 0.045-0.027 0.059-0.018 0.018-0.036 0.027-0.059 0.027h-1.036v0.626c0 0.024-0.009 0.045-0.027 0.059-0.018 0.018-0.036 0.027-0.059 0.027h-0.683c-0.024 0-0.045-0.009-0.059-0.027-0.018-0.018-0.027-0.036-0.027-0.059v-2.045c0-0.024 0.009-0.045 0.027-0.059 0.015-0.018 0.036-0.027 0.059-0.027z"></path>
<path d="M15.947 0.941v0.377c0 0.211-0.053 0.389-0.157 0.531-0.107 0.143-0.243 0.243-0.413 0.303s-0.371 0.089-0.603 0.089c-0.232 0-0.433-0.030-0.603-0.089s-0.309-0.16-0.413-0.303c-0.107-0.143-0.157-0.321-0.157-0.537v-0.365c0-0.309 0.11-0.543 0.327-0.698s0.502-0.232 0.849-0.232 0.629 0.077 0.849 0.232c0.214 0.154 0.321 0.386 0.321 0.692zM14.45 0.888v0.478c0 0.083 0.030 0.145 0.086 0.187 0.059 0.045 0.137 0.065 0.235 0.065s0.178-0.024 0.235-0.068c0.059-0.045 0.086-0.107 0.086-0.19v-0.469c0-0.083-0.030-0.145-0.086-0.19-0.059-0.045-0.137-0.068-0.235-0.068s-0.178 0.021-0.235 0.065c-0.059 0.047-0.086 0.11-0.086 0.19z"></path>
<path d="M18.713 2.137c0.003 0.009 0.006 0.021 0.006 0.036s-0.006 0.030-0.021 0.042c-0.015 0.015-0.030 0.021-0.050 0.021h-0.718c-0.062 0-0.107-0.027-0.134-0.080l-0.279-0.626h-0.264v0.62c0 0.024-0.009 0.045-0.027 0.059-0.018 0.018-0.036 0.027-0.059 0.027h-0.683c-0.024 0-0.045-0.009-0.059-0.027-0.018-0.018-0.027-0.036-0.027-0.059v-2.042c0-0.024 0.009-0.045 0.027-0.059 0.018-0.018 0.036-0.027 0.059-0.027h1.229c0.288 0 0.517 0.068 0.686 0.205s0.252 0.324 0.252 0.558c0 0.288-0.11 0.493-0.332 0.623l0.395 0.73zM17.256 0.609v0.335h0.395c0.047 0 0.083-0.015 0.107-0.045 0.027-0.030 0.039-0.068 0.039-0.116s-0.012-0.086-0.036-0.122c-0.024-0.036-0.059-0.053-0.11-0.053h-0.395z"></path>
<path d="M20.696 0.021h0.579c0.024 0 0.045 0.009 0.059 0.027 0.018 0.018 0.027 0.036 0.027 0.059v2.042c0 0.024-0.009 0.045-0.027 0.059-0.018 0.018-0.036 0.027-0.059 0.027h-0.573c-0.024 0-0.045-0.009-0.059-0.027-0.018-0.018-0.027-0.036-0.027-0.059v-0.98l-0.232 0.454c-0.012 0.027-0.033 0.045-0.056 0.059-0.027 0.015-0.050 0.021-0.077 0.021h-0.214c-0.036 0-0.065-0.009-0.089-0.030-0.024-0.018-0.039-0.036-0.045-0.050l-0.232-0.454v0.98c0 0.024-0.009 0.045-0.027 0.059-0.018 0.018-0.036 0.027-0.059 0.027h-0.573c-0.024 0-0.045-0.009-0.059-0.027-0.018-0.018-0.027-0.036-0.027-0.059v-2.042c0-0.024 0.009-0.045 0.027-0.059 0.018-0.018 0.036-0.027 0.059-0.027h0.579c0.059 0 0.104 0.030 0.137 0.086l0.413 0.76 0.413-0.76c0.036-0.056 0.083-0.086 0.142-0.086z"></path>
<path d="M22.234 2.235h-0.597c-0.018 0-0.036-0.006-0.050-0.021s-0.021-0.027-0.021-0.039c0-0.012 0-0.021 0.003-0.030l0.689-2.019c0.018-0.068 0.065-0.104 0.142-0.104h0.879c0.077 0 0.125 0.036 0.142 0.104l0.689 2.019c0.003 0.006 0.003 0.015 0.003 0.030 0 0.012-0.006 0.027-0.021 0.039-0.015 0.015-0.030 0.021-0.050 0.021h-0.597c-0.068 0-0.116-0.036-0.142-0.107l-0.080-0.223h-0.772l-0.080 0.223c-0.021 0.071-0.068 0.107-0.137 0.107zM23.065 1.288l-0.226-0.656-0.226 0.656h0.451z"></path>
<path d="M25.918 0.021h0.591c0.024 0 0.045 0.009 0.059 0.027 0.018 0.018 0.027 0.036 0.027 0.059v2.042c0 0.024-0.009 0.045-0.027 0.059-0.018 0.018-0.036 0.027-0.059 0.027h-0.508c-0.050 0-0.092-0.021-0.128-0.065l-0.689-0.879v0.861c0 0.024-0.009 0.045-0.027 0.059-0.018 0.018-0.036 0.027-0.059 0.027h-0.588c-0.024 0-0.045-0.009-0.059-0.027-0.018-0.018-0.027-0.036-0.027-0.059v-2.045c0-0.024 0.009-0.045 0.027-0.059 0.018-0.018 0.036-0.027 0.059-0.027h0.511c0.050 0 0.092 0.021 0.125 0.062l0.689 0.95v-0.926c0-0.024 0.009-0.045 0.027-0.059 0.015-0.018 0.036-0.027 0.056-0.027z"></path>
<path d="M27.912 0.888v0.478c0 0.083 0.030 0.145 0.086 0.187 0.059 0.045 0.134 0.065 0.229 0.065s0.16-0.015 0.205-0.042c0.042-0.027 0.077-0.068 0.107-0.122s0.065-0.080 0.113-0.080h0.683c0.018 0 0.036 0.006 0.050 0.021s0.021 0.030 0.021 0.048c0 0.193-0.092 0.368-0.279 0.528-0.092 0.080-0.217 0.142-0.371 0.19s-0.335 0.074-0.543 0.074c-0.208 0-0.398-0.033-0.57-0.095s-0.312-0.166-0.419-0.309c-0.107-0.143-0.16-0.318-0.16-0.525v-0.359c0-0.208 0.053-0.383 0.16-0.528 0.202-0.267 0.54-0.401 1.015-0.401 0.193 0 0.365 0.024 0.519 0.074 0.154 0.047 0.276 0.113 0.371 0.19 0.184 0.16 0.279 0.335 0.279 0.528 0 0.018-0.006 0.036-0.021 0.047-0.015 0.015-0.030 0.021-0.050 0.021h-0.683c-0.047 0-0.083-0.027-0.113-0.080s-0.062-0.095-0.107-0.122c-0.042-0.027-0.11-0.042-0.205-0.042s-0.169 0.021-0.229 0.065c-0.059 0.045-0.089 0.107-0.089 0.187z"></path>
<path d="M30.652 1.618h1.262c0.024 0 0.045 0.009 0.059 0.027 0.018 0.018 0.027 0.036 0.027 0.059v0.445c0 0.024-0.009 0.045-0.027 0.059-0.018 0.018-0.036 0.027-0.059 0.027h-1.998c-0.024 0-0.045-0.009-0.059-0.027-0.018-0.018-0.027-0.036-0.027-0.059v-2.042c0-0.024 0.009-0.045 0.027-0.059 0.018-0.018 0.036-0.027 0.059-0.027h1.965c0.024 0 0.045 0.009 0.059 0.027 0.018 0.018 0.027 0.036 0.027 0.059v0.445c0 0.024-0.009 0.045-0.027 0.059-0.018 0.018-0.036 0.027-0.059 0.027h-1.229v0.199h1.057c0.024 0 0.045 0.009 0.059 0.027 0.018 0.018 0.027 0.036 0.027 0.059v0.41c0 0.024-0.009 0.045-0.027 0.059-0.018 0.018-0.036 0.027-0.059 0.027h-1.057v0.199z"></path>
<path d="M5.815 3.040h1.912c0.021 0 0.039 0.006 0.053 0.021s0.021 0.033 0.021 0.053v0.445c0 0.021-0.006 0.039-0.021 0.053s-0.033 0.021-0.053 0.021h-0.597v1.27c0 0.021-0.006 0.039-0.021 0.053s-0.033 0.021-0.053 0.021h-0.57c-0.021 0-0.039-0.006-0.053-0.021s-0.021-0.033-0.021-0.053v-1.271h-0.597c-0.021 0-0.039-0.006-0.053-0.021s-0.021-0.033-0.021-0.053v-0.445c0-0.021 0.006-0.039 0.021-0.053 0.015-0.012 0.033-0.021 0.053-0.021z"></path>
<path d="M8.92 4.441h1.104c0.021 0 0.039 0.006 0.053 0.021s0.021 0.033 0.021 0.053v0.392c0 0.021-0.006 0.039-0.021 0.053s-0.033 0.021-0.053 0.021h-1.751c-0.021 0-0.039-0.006-0.053-0.021s-0.021-0.033-0.021-0.053v-1.79c0-0.021 0.006-0.039 0.021-0.053s0.033-0.021 0.053-0.021h1.725c0.021 0 0.039 0.006 0.053 0.021s0.021 0.033 0.021 0.053v0.392c0 0.021-0.006 0.039-0.021 0.053s-0.033 0.021-0.053 0.021h-1.078v0.175h0.926c0.021 0 0.039 0.006 0.053 0.021s0.021 0.033 0.021 0.053v0.359c0 0.021-0.006 0.039-0.021 0.053s-0.033 0.021-0.053 0.021h-0.926v0.175z"></path>
<path d="M11.227 3.8v0.419c0 0.071 0.027 0.128 0.077 0.166s0.119 0.056 0.199 0.056c0.083 0 0.143-0.012 0.178-0.036s0.068-0.059 0.092-0.107c0.024-0.048 0.056-0.071 0.098-0.071h0.6c0.018 0 0.030 0.006 0.042 0.018s0.018 0.027 0.018 0.042c0 0.169-0.080 0.324-0.243 0.463-0.080 0.068-0.19 0.125-0.324 0.166s-0.294 0.065-0.478 0.065c-0.184 0-0.35-0.027-0.502-0.083-0.151-0.053-0.273-0.145-0.368-0.27s-0.143-0.279-0.143-0.46v-0.318c0-0.181 0.047-0.335 0.143-0.463 0.178-0.235 0.475-0.35 0.891-0.35 0.169 0 0.321 0.021 0.454 0.065 0.134 0.042 0.243 0.098 0.324 0.166 0.163 0.14 0.243 0.294 0.243 0.463 0 0.018-0.006 0.030-0.018 0.042s-0.027 0.018-0.042 0.018h-0.594c-0.042 0-0.074-0.024-0.098-0.071s-0.056-0.083-0.092-0.107c-0.036-0.024-0.098-0.036-0.178-0.036-0.083 0-0.148 0.018-0.199 0.056-0.053 0.042-0.080 0.095-0.080 0.166z"></path>
<path d="M14.189 3.040h0.57c0.021 0 0.039 0.006 0.053 0.021s0.021 0.033 0.021 0.053v1.79c0 0.021-0.006 0.039-0.021 0.053s-0.033 0.021-0.053 0.021h-0.57c-0.021 0-0.039-0.006-0.053-0.021s-0.021-0.033-0.021-0.053v-0.591h-0.555v0.591c0 0.021-0.006 0.039-0.021 0.053s-0.033 0.021-0.053 0.021h-0.57c-0.021 0-0.039-0.006-0.053-0.021s-0.021-0.033-0.021-0.053v-1.79c0-0.021 0.006-0.039 0.021-0.053s0.033-0.021 0.053-0.021h0.57c0.021 0 0.039 0.006 0.053 0.021s0.021 0.033 0.021 0.053v0.567h0.555v-0.567c0-0.021 0.006-0.039 0.021-0.053 0.018-0.012 0.033-0.021 0.053-0.021z"></path>
<path d="M16.546 3.040h0.517c0.021 0 0.039 0.006 0.053 0.021s0.021 0.033 0.021 0.053v1.79c0 0.021-0.009 0.039-0.021 0.053-0.015 0.015-0.033 0.021-0.053 0.021h-0.445c-0.045 0-0.080-0.021-0.11-0.059l-0.606-0.772v0.754c0 0.021-0.006 0.039-0.021 0.053s-0.033 0.021-0.053 0.021h-0.517c-0.021 0-0.039-0.006-0.053-0.021s-0.021-0.033-0.021-0.053v-1.79c0-0.021 0.006-0.039 0.021-0.053s0.033-0.021 0.053-0.021h0.448c0.045 0 0.080 0.018 0.107 0.056l0.606 0.834v-0.813c0-0.021 0.006-0.039 0.021-0.053 0.015-0.012 0.033-0.021 0.053-0.021z"></path>
<path d="M19.58 3.844v0.33c0 0.187-0.047 0.341-0.14 0.466s-0.214 0.214-0.362 0.264c-0.148 0.053-0.327 0.077-0.528 0.077s-0.38-0.027-0.528-0.077c-0.148-0.053-0.27-0.14-0.362-0.264s-0.14-0.282-0.14-0.469v-0.318c0-0.273 0.095-0.475 0.288-0.611s0.439-0.202 0.745-0.202 0.552 0.068 0.745 0.202 0.282 0.335 0.282 0.603zM18.268 3.8v0.419c0 0.071 0.027 0.128 0.077 0.166s0.119 0.056 0.208 0.056c0.086 0 0.154-0.021 0.208-0.059 0.050-0.039 0.077-0.095 0.077-0.166v-0.413c0-0.071-0.027-0.128-0.077-0.166s-0.119-0.059-0.208-0.059c-0.086 0-0.154 0.018-0.208 0.056-0.053 0.042-0.077 0.095-0.077 0.166z"></path>
<path d="M20.862 4.411h0.944c0.021 0 0.039 0.006 0.053 0.021s0.021 0.033 0.021 0.053v0.419c0 0.021-0.009 0.039-0.021 0.053-0.015 0.015-0.033 0.021-0.053 0.021h-1.618c-0.021 0-0.039-0.006-0.053-0.021s-0.021-0.033-0.021-0.053v-1.79c0-0.021 0.006-0.039 0.021-0.053s0.033-0.021 0.053-0.021h0.6c0.021 0 0.039 0.006 0.053 0.021s0.021 0.033 0.021 0.053v1.297z"></path>
<path d="M24.291 3.844v0.33c0 0.187-0.047 0.341-0.14 0.466s-0.214 0.214-0.362 0.264c-0.148 0.053-0.327 0.077-0.528 0.077s-0.38-0.027-0.528-0.077c-0.148-0.053-0.27-0.14-0.362-0.264s-0.14-0.282-0.14-0.469v-0.318c0-0.273 0.095-0.475 0.288-0.611s0.439-0.202 0.745-0.202 0.552 0.068 0.745 0.202 0.282 0.335 0.282 0.603zM22.979 3.8v0.419c0 0.071 0.027 0.128 0.077 0.166s0.119 0.056 0.208 0.056c0.086 0 0.154-0.021 0.208-0.059 0.050-0.039 0.077-0.095 0.077-0.166v-0.413c0-0.071-0.027-0.128-0.077-0.166s-0.119-0.059-0.208-0.059c-0.086 0-0.154 0.018-0.208 0.056-0.053 0.042-0.077 0.095-0.077 0.166z"></path>
<path d="M25.811 3.785h0.804c0.021 0 0.039 0.006 0.053 0.021s0.021 0.033 0.021 0.053v0.294c0 0.282-0.095 0.49-0.288 0.626-0.19 0.137-0.445 0.205-0.757 0.205-0.315 0-0.567-0.065-0.757-0.199s-0.288-0.338-0.288-0.614v-0.318c0-0.14 0.027-0.261 0.083-0.368 0.053-0.107 0.131-0.193 0.229-0.255 0.193-0.125 0.436-0.19 0.733-0.19 0.148 0 0.282 0.018 0.407 0.050 0.122 0.033 0.22 0.074 0.294 0.122s0.137 0.101 0.187 0.157c0.089 0.098 0.137 0.187 0.137 0.264 0 0.015-0.006 0.030-0.018 0.042s-0.027 0.018-0.042 0.018h-0.626c-0.036 0-0.062-0.009-0.080-0.024-0.056-0.059-0.137-0.086-0.235-0.086s-0.175 0.018-0.232 0.056c-0.056 0.036-0.083 0.083-0.083 0.143v0.445c0 0.071 0.027 0.125 0.083 0.163s0.134 0.059 0.235 0.059c0.101 0 0.178-0.021 0.232-0.059s0.083-0.086 0.083-0.14h-0.172c-0.021 0-0.039-0.006-0.053-0.021s-0.021-0.033-0.021-0.053v-0.309c0-0.021 0.006-0.039 0.021-0.053 0.012-0.021 0.030-0.030 0.050-0.030z"></path>
<path d="M28.408 3.040h0.579c0.018 0 0.030 0.006 0.042 0.018s0.018 0.024 0.018 0.039c0 0.012-0.003 0.024-0.009 0.036l-0.698 1.155v0.617c0 0.021-0.006 0.039-0.021 0.053s-0.033 0.021-0.053 0.021h-0.591c-0.021 0-0.039-0.006-0.053-0.021s-0.021-0.033-0.021-0.053v-0.617l-0.695-1.155c-0.006-0.012-0.009-0.024-0.009-0.036s0.006-0.027 0.018-0.039c0.012-0.012 0.027-0.018 0.042-0.018h0.585c0.050 0 0.089 0.021 0.113 0.062l0.312 0.549 0.321-0.543c0.033-0.045 0.071-0.068 0.122-0.068z"></path>
<path d="M26.182 28.945h-1.912c-0.021 0-0.039-0.006-0.053-0.021s-0.021-0.033-0.021-0.053v-0.445c0-0.021 0.009-0.039 0.021-0.053 0.015-0.015 0.033-0.021 0.053-0.021h0.597v-1.27c0-0.021 0.009-0.039 0.021-0.053 0.015-0.015 0.033-0.021 0.053-0.021h0.57c0.021 0 0.039 0.006 0.053 0.021s0.021 0.033 0.021 0.053v1.268h0.597c0.021 0 0.039 0.006 0.053 0.021s0.021 0.033 0.021 0.053v0.445c0 0.021-0.006 0.039-0.021 0.053s-0.033 0.024-0.053 0.024z"></path>
<path d="M23.080 27.547h-1.104c-0.021 0-0.039-0.006-0.053-0.021s-0.021-0.033-0.021-0.053v-0.392c0-0.021 0.006-0.039 0.021-0.053s0.033-0.021 0.053-0.021h1.751c0.021 0 0.039 0.006 0.053 0.021s0.021 0.033 0.021 0.053v1.79c0 0.021-0.006 0.039-0.021 0.053s-0.033 0.021-0.053 0.021h-1.725c-0.021 0-0.039-0.006-0.053-0.021s-0.021-0.033-0.021-0.053v-0.392c0-0.021 0.006-0.039 0.021-0.053s0.033-0.021 0.053-0.021h1.078v-0.175h-0.926c-0.021 0-0.039-0.006-0.053-0.021s-0.021-0.033-0.021-0.053v-0.359c0-0.021 0.006-0.039 0.021-0.053s0.033-0.021 0.053-0.021h0.926v-0.175z"></path>
<path d="M20.77 28.186v-0.419c0-0.071-0.027-0.128-0.077-0.166s-0.119-0.056-0.199-0.056c-0.083 0-0.142 0.012-0.178 0.036s-0.068 0.059-0.092 0.107c-0.024 0.047-0.056 0.071-0.098 0.071h-0.6c-0.018 0-0.030-0.006-0.042-0.018s-0.018-0.027-0.018-0.042c0-0.169 0.080-0.324 0.243-0.463 0.080-0.068 0.19-0.125 0.324-0.166s0.294-0.065 0.478-0.065c0.184 0 0.35 0.027 0.502 0.083 0.151 0.053 0.273 0.145 0.368 0.27s0.142 0.279 0.142 0.46v0.318c0 0.181-0.047 0.335-0.142 0.463-0.178 0.235-0.475 0.35-0.891 0.35-0.169 0-0.321-0.021-0.454-0.065-0.134-0.042-0.243-0.098-0.324-0.166-0.163-0.14-0.243-0.294-0.243-0.463 0-0.018 0.006-0.030 0.018-0.042s0.027-0.018 0.042-0.018h0.6c0.042 0 0.074 0.024 0.098 0.071s0.056 0.083 0.092 0.107c0.036 0.024 0.098 0.036 0.178 0.036 0.083 0 0.148-0.018 0.199-0.056 0.047-0.042 0.074-0.095 0.074-0.166z"></path>
<path d="M17.808 28.945h-0.57c-0.021 0-0.039-0.006-0.053-0.021s-0.021-0.033-0.021-0.053v-1.79c0-0.021 0.006-0.039 0.021-0.053s0.033-0.021 0.053-0.021h0.57c0.021 0 0.039 0.006 0.053 0.021s0.021 0.033 0.021 0.053v0.591h0.555v-0.591c0-0.021 0.006-0.039 0.021-0.053s0.033-0.021 0.053-0.021h0.57c0.021 0 0.039 0.006 0.053 0.021s0.021 0.033 0.021 0.053v1.79c0 0.021-0.006 0.039-0.021 0.053s-0.033 0.021-0.053 0.021h-0.57c-0.021 0-0.039-0.006-0.053-0.021s-0.021-0.033-0.021-0.053v-0.567h-0.555v0.567c0 0.021-0.006 0.039-0.021 0.053-0.015 0.012-0.033 0.021-0.053 0.021z"></path>
<path d="M15.451 28.945h-0.517c-0.021 0-0.039-0.006-0.053-0.021s-0.021-0.033-0.021-0.053v-1.79c0-0.021 0.009-0.039 0.021-0.053 0.015-0.015 0.033-0.021 0.053-0.021h0.445c0.045 0 0.080 0.021 0.11 0.059l0.606 0.772v-0.754c0-0.021 0.006-0.039 0.021-0.053s0.033-0.021 0.053-0.021h0.517c0.021 0 0.039 0.006 0.053 0.021s0.021 0.033 0.021 0.053v1.79c0 0.021-0.006 0.039-0.021 0.053s-0.033 0.021-0.053 0.021h-0.448c-0.045 0-0.080-0.018-0.107-0.056l-0.606-0.834v0.813c0 0.021-0.006 0.039-0.021 0.053-0.015 0.012-0.033 0.021-0.053 0.021z"></path>
<path d="M12.417 28.141v-0.329c0-0.187 0.047-0.341 0.14-0.466s0.214-0.214 0.362-0.264 0.327-0.077 0.528-0.077c0.202 0 0.38 0.027 0.528 0.077s0.27 0.14 0.362 0.264c0.092 0.125 0.14 0.282 0.14 0.469v0.318c0 0.273-0.095 0.475-0.288 0.611-0.19 0.137-0.439 0.202-0.745 0.202s-0.552-0.068-0.745-0.202c-0.187-0.134-0.282-0.335-0.282-0.603zM13.732 28.186v-0.419c0-0.071-0.027-0.128-0.077-0.166s-0.119-0.056-0.208-0.056c-0.086 0-0.154 0.021-0.208 0.059-0.050 0.039-0.077 0.095-0.077 0.166v0.413c0 0.071 0.027 0.128 0.077 0.166s0.119 0.059 0.208 0.059c0.086 0 0.154-0.018 0.208-0.056 0.050-0.042 0.077-0.095 0.077-0.166z"></path>
<path d="M11.135 27.574h-0.944c-0.021 0-0.039-0.009-0.053-0.021-0.015-0.015-0.021-0.033-0.021-0.053v-0.419c0-0.021 0.009-0.039 0.021-0.053 0.015-0.015 0.033-0.021 0.053-0.021h1.618c0.021 0 0.039 0.006 0.053 0.021s0.021 0.033 0.021 0.053v1.79c0 0.021-0.006 0.039-0.021 0.053s-0.033 0.021-0.053 0.021h-0.6c-0.021 0-0.039-0.006-0.053-0.021s-0.021-0.033-0.021-0.053v-1.297z"></path>
<path d="M7.706 28.141v-0.329c0-0.187 0.048-0.341 0.14-0.466s0.214-0.214 0.362-0.264 0.327-0.077 0.528-0.077c0.202 0 0.38 0.027 0.528 0.077s0.27 0.14 0.362 0.264c0.092 0.125 0.14 0.282 0.14 0.469v0.318c0 0.273-0.095 0.475-0.288 0.611-0.19 0.137-0.439 0.202-0.745 0.202s-0.552-0.068-0.745-0.202c-0.187-0.134-0.282-0.335-0.282-0.603zM9.021 28.186v-0.419c0-0.071-0.027-0.128-0.077-0.166s-0.119-0.056-0.208-0.056c-0.086 0-0.154 0.021-0.208 0.059-0.050 0.039-0.077 0.095-0.077 0.166v0.413c0 0.071 0.027 0.128 0.077 0.166s0.119 0.059 0.208 0.059c0.086 0 0.154-0.018 0.208-0.056 0.050-0.042 0.077-0.095 0.077-0.166z"></path>
<path d="M6.186 28.2h-0.804c-0.021 0-0.039-0.006-0.053-0.021s-0.021-0.033-0.021-0.053v-0.294c0-0.282 0.095-0.49 0.288-0.626 0.19-0.137 0.445-0.205 0.757-0.205 0.315 0 0.567 0.065 0.757 0.199s0.288 0.338 0.288 0.614v0.318c0 0.14-0.027 0.261-0.083 0.368-0.053 0.107-0.131 0.193-0.229 0.255-0.193 0.125-0.436 0.19-0.733 0.19-0.148 0-0.282-0.018-0.407-0.050-0.122-0.033-0.22-0.074-0.294-0.122s-0.137-0.101-0.187-0.157c-0.089-0.098-0.137-0.187-0.137-0.264 0-0.015 0.006-0.030 0.018-0.042s0.027-0.018 0.042-0.018h0.626c0.036 0 0.062 0.009 0.080 0.024 0.056 0.059 0.137 0.086 0.234 0.086s0.175-0.018 0.232-0.056c0.056-0.036 0.083-0.083 0.083-0.142v-0.445c0-0.071-0.027-0.125-0.083-0.163s-0.134-0.059-0.234-0.059c-0.101 0-0.178 0.021-0.232 0.059s-0.083 0.086-0.083 0.14h0.172c0.021 0 0.039 0.006 0.053 0.021s0.021 0.033 0.021 0.053v0.309c0 0.021-0.006 0.039-0.021 0.053-0.012 0.021-0.030 0.030-0.050 0.030z"></path>
<path d="M3.592 28.945h-0.579c-0.018 0-0.030-0.006-0.042-0.018s-0.018-0.024-0.018-0.039c0-0.012 0.003-0.024 0.009-0.036l0.698-1.155v-0.617c0-0.021 0.006-0.039 0.021-0.053s0.033-0.021 0.053-0.021h0.591c0.021 0 0.039 0.006 0.053 0.021s0.021 0.033 0.021 0.053v0.617l0.695 1.155c0.006 0.012 0.009 0.024 0.009 0.036s-0.006 0.027-0.018 0.039c-0.012 0.012-0.027 0.018-0.042 0.018h-0.585c-0.050 0-0.089-0.021-0.113-0.062l-0.312-0.549-0.321 0.543c-0.033 0.045-0.074 0.068-0.122 0.068z"></path>
<path d="M28.951 5.809v1.912c0 0.021-0.006 0.039-0.021 0.053s-0.033 0.021-0.053 0.021h-0.445c-0.021 0-0.039-0.006-0.053-0.021s-0.021-0.033-0.021-0.053v-0.597h-1.27c-0.021 0-0.039-0.006-0.053-0.021s-0.021-0.033-0.021-0.053v-0.57c0-0.021 0.006-0.039 0.021-0.053s0.033-0.021 0.053-0.021h1.27v-0.597c0-0.021 0.006-0.039 0.021-0.053s0.033-0.021 0.053-0.021h0.445c0.021 0 0.039 0.006 0.053 0.021 0.012 0.015 0.021 0.033 0.021 0.053z"></path>
<path d="M27.553 8.914v1.104c0 0.021-0.006 0.039-0.021 0.053s-0.033 0.021-0.053 0.021h-0.392c-0.021 0-0.039-0.006-0.053-0.021s-0.021-0.033-0.021-0.053v-1.751c0-0.021 0.006-0.039 0.021-0.053s0.033-0.021 0.053-0.021h1.79c0.021 0 0.039 0.006 0.053 0.021s0.021 0.033 0.021 0.053v1.725c0 0.021-0.006 0.039-0.021 0.053s-0.033 0.021-0.053 0.021h-0.392c-0.021 0-0.039-0.006-0.053-0.021s-0.021-0.033-0.021-0.053v-1.078h-0.175v0.926c0 0.021-0.006 0.039-0.021 0.053s-0.033 0.021-0.053 0.021h-0.359c-0.021 0-0.039-0.006-0.053-0.021s-0.021-0.033-0.021-0.053v-0.926h-0.175z"></path>
<path d="M28.191 11.221h-0.419c-0.071 0-0.128 0.027-0.166 0.077s-0.056 0.119-0.056 0.199c0 0.083 0.012 0.143 0.036 0.178s0.059 0.068 0.107 0.092c0.047 0.024 0.071 0.056 0.071 0.098v0.603c0 0.018-0.006 0.030-0.018 0.042s-0.027 0.018-0.042 0.018c-0.169 0-0.324-0.080-0.463-0.243-0.068-0.080-0.125-0.19-0.166-0.324s-0.065-0.294-0.065-0.478c0-0.184 0.027-0.35 0.083-0.502 0.053-0.151 0.145-0.273 0.27-0.368s0.279-0.143 0.46-0.143h0.318c0.181 0 0.335 0.047 0.463 0.143 0.235 0.178 0.35 0.475 0.35 0.891 0 0.169-0.021 0.321-0.065 0.454-0.042 0.134-0.098 0.243-0.166 0.324-0.14 0.163-0.294 0.243-0.463 0.243-0.018 0-0.030-0.006-0.042-0.018s-0.018-0.027-0.018-0.042v-0.6c0-0.042 0.024-0.074 0.071-0.098s0.083-0.056 0.107-0.092c0.024-0.036 0.036-0.098 0.036-0.178 0-0.083-0.018-0.148-0.056-0.199-0.042-0.050-0.095-0.077-0.166-0.077z"></path>
<path d="M28.951 14.183v0.57c0 0.021-0.006 0.039-0.021 0.053s-0.033 0.021-0.053 0.021h-1.79c-0.021 0-0.039-0.006-0.053-0.021s-0.021-0.033-0.021-0.053v-0.57c0-0.021 0.006-0.039 0.021-0.053s0.033-0.021 0.053-0.021h0.591v-0.555h-0.591c-0.021 0-0.039-0.006-0.053-0.021s-0.021-0.033-0.021-0.053v-0.57c0-0.021 0.006-0.039 0.021-0.053s0.033-0.021 0.053-0.021h1.79c0.021 0 0.039 0.006 0.053 0.021s0.021 0.033 0.021 0.053v0.57c0 0.021-0.006 0.039-0.021 0.053s-0.033 0.021-0.053 0.021h-0.567v0.555h0.567c0.021 0 0.039 0.006 0.053 0.021 0.012 0.018 0.021 0.033 0.021 0.053z"></path>
<path d="M28.951 16.54v0.517c0 0.021-0.006 0.039-0.021 0.053s-0.033 0.021-0.053 0.021h-1.79c-0.021 0-0.039-0.009-0.053-0.021-0.015-0.015-0.021-0.033-0.021-0.053v-0.445c0-0.045 0.021-0.080 0.059-0.11l0.772-0.606h-0.754c-0.021 0-0.039-0.006-0.053-0.021s-0.021-0.033-0.021-0.053v-0.517c0-0.021 0.006-0.039 0.021-0.053s0.033-0.021 0.053-0.021h1.79c0.021 0 0.039 0.006 0.053 0.021s0.021 0.033 0.021 0.053v0.448c0 0.045-0.018 0.080-0.056 0.107l-0.834 0.606h0.813c0.021 0 0.039 0.006 0.053 0.021 0.012 0.015 0.021 0.033 0.021 0.053z"></path>
<path d="M28.147 19.574h-0.329c-0.187 0-0.341-0.047-0.466-0.14s-0.214-0.214-0.264-0.362c-0.053-0.148-0.077-0.327-0.077-0.528s0.027-0.38 0.077-0.528c0.053-0.148 0.14-0.27 0.264-0.362s0.282-0.14 0.469-0.14h0.321c0.273 0 0.475 0.095 0.611 0.288 0.137 0.19 0.202 0.439 0.202 0.745s-0.068 0.552-0.202 0.745c-0.137 0.187-0.338 0.282-0.606 0.282zM28.191 18.262h-0.419c-0.071 0-0.128 0.027-0.166 0.077s-0.056 0.119-0.056 0.208c0 0.086 0.021 0.154 0.059 0.208 0.039 0.050 0.095 0.077 0.166 0.077h0.413c0.071 0 0.128-0.027 0.166-0.077s0.059-0.119 0.059-0.208c0-0.086-0.018-0.154-0.056-0.208-0.042-0.053-0.095-0.077-0.166-0.077z"></path>
<path d="M27.58 20.856v0.944c0 0.021-0.009 0.039-0.021 0.053-0.015 0.015-0.033 0.021-0.053 0.021h-0.419c-0.021 0-0.039-0.009-0.053-0.021-0.015-0.015-0.021-0.033-0.021-0.053v-1.615c0-0.021 0.006-0.039 0.021-0.053s0.033-0.021 0.053-0.021h1.79c0.021 0 0.039 0.006 0.053 0.021s0.021 0.033 0.021 0.053v0.6c0 0.021-0.006 0.039-0.021 0.053s-0.033 0.021-0.053 0.021h-1.297z"></path>
<path d="M28.147 24.285h-0.329c-0.187 0-0.341-0.047-0.466-0.14s-0.214-0.214-0.264-0.362c-0.053-0.148-0.077-0.327-0.077-0.528s0.027-0.38 0.077-0.528c0.053-0.148 0.14-0.27 0.264-0.362s0.282-0.14 0.469-0.14h0.321c0.273 0 0.475 0.095 0.611 0.288 0.137 0.19 0.202 0.439 0.202 0.745s-0.068 0.552-0.202 0.745c-0.137 0.187-0.338 0.282-0.606 0.282zM28.191 22.973h-0.419c-0.071 0-0.128 0.027-0.166 0.077s-0.056 0.119-0.056 0.208c0 0.086 0.021 0.154 0.059 0.208 0.039 0.050 0.095 0.077 0.166 0.077h0.413c0.071 0 0.128-0.027 0.166-0.077s0.059-0.119 0.059-0.208c0-0.086-0.018-0.154-0.056-0.208-0.042-0.053-0.095-0.077-0.166-0.077z"></path>
<path d="M28.206 25.805v0.804c0 0.021-0.006 0.039-0.021 0.053s-0.033 0.021-0.053 0.021h-0.294c-0.282 0-0.49-0.095-0.626-0.288-0.137-0.19-0.205-0.445-0.205-0.757 0-0.315 0.065-0.567 0.199-0.757s0.338-0.288 0.614-0.288h0.321c0.14 0 0.261 0.027 0.368 0.083 0.107 0.053 0.193 0.131 0.255 0.229 0.125 0.193 0.19 0.436 0.19 0.733 0 0.148-0.018 0.282-0.050 0.407-0.033 0.122-0.074 0.22-0.122 0.294s-0.101 0.137-0.157 0.187c-0.098 0.089-0.187 0.137-0.264 0.137-0.015 0-0.030-0.006-0.042-0.018s-0.018-0.027-0.018-0.042v-0.629c0-0.036 0.009-0.062 0.024-0.080 0.059-0.056 0.086-0.137 0.086-0.235s-0.018-0.175-0.056-0.232c-0.036-0.056-0.083-0.083-0.142-0.083h-0.445c-0.071 0-0.125 0.027-0.163 0.083s-0.059 0.134-0.059 0.235c0 0.101 0.021 0.178 0.059 0.232s0.086 0.083 0.14 0.083v-0.172c0-0.021 0.006-0.039 0.021-0.053s0.033-0.021 0.053-0.021h0.309c0.021 0 0.039 0.006 0.053 0.021 0.018 0.015 0.027 0.033 0.027 0.053z"></path>
<path d="M28.951 28.402v0.579c0 0.018-0.006 0.030-0.018 0.042s-0.024 0.018-0.039 0.018c-0.012 0-0.024-0.003-0.036-0.009l-1.155-0.698h-0.617c-0.021 0-0.039-0.006-0.053-0.021s-0.021-0.033-0.021-0.053v-0.591c0-0.021 0.006-0.039 0.021-0.053s0.033-0.021 0.053-0.021h0.617l1.155-0.695c0.012-0.006 0.024-0.009 0.036-0.009s0.027 0.006 0.039 0.018c0.012 0.012 0.018 0.027 0.018 0.042v0.585c0 0.050-0.021 0.089-0.062 0.113l-0.549 0.315 0.543 0.321c0.045 0.030 0.068 0.068 0.068 0.119z"></path>
<path d="M3.046 26.176v-1.912c0-0.021 0.006-0.039 0.021-0.053s0.033-0.021 0.053-0.021h0.445c0.021 0 0.039 0.009 0.053 0.021 0.015 0.015 0.021 0.033 0.021 0.053v0.597h1.27c0.021 0 0.039 0.009 0.053 0.021 0.015 0.015 0.021 0.033 0.021 0.053v0.57c0 0.021-0.006 0.039-0.021 0.053s-0.033 0.021-0.053 0.021h-1.271v0.597c0 0.021-0.006 0.039-0.021 0.053s-0.033 0.021-0.053 0.021h-0.445c-0.021 0-0.039-0.006-0.053-0.021-0.012-0.015-0.021-0.033-0.021-0.053z"></path>
<path d="M4.447 23.071v-1.104c0-0.021 0.006-0.039 0.021-0.053s0.033-0.021 0.053-0.021h0.392c0.021 0 0.039 0.006 0.053 0.021s0.021 0.033 0.021 0.053v1.751c0 0.021-0.006 0.039-0.021 0.053s-0.033 0.021-0.053 0.021h-1.79c-0.021 0-0.039-0.006-0.053-0.021s-0.021-0.033-0.021-0.053v-1.725c0-0.021 0.006-0.039 0.021-0.053s0.033-0.021 0.053-0.021h0.392c0.021 0 0.039 0.006 0.053 0.021s0.021 0.033 0.021 0.053v1.078h0.175v-0.926c0-0.021 0.006-0.039 0.021-0.053s0.033-0.021 0.053-0.021h0.359c0.021 0 0.039 0.006 0.053 0.021s0.021 0.033 0.021 0.053v0.926h0.175z"></path>
<path d="M3.806 20.764h0.419c0.071 0 0.128-0.027 0.166-0.077s0.056-0.119 0.056-0.199c0-0.083-0.012-0.142-0.036-0.178s-0.059-0.068-0.107-0.092c-0.048-0.024-0.071-0.056-0.071-0.098v-0.6c0-0.018 0.006-0.030 0.018-0.042s0.027-0.018 0.042-0.018c0.169 0 0.324 0.080 0.463 0.243 0.068 0.080 0.125 0.19 0.166 0.324s0.065 0.294 0.065 0.478c0 0.184-0.027 0.35-0.083 0.502-0.053 0.151-0.145 0.273-0.27 0.368s-0.279 0.142-0.46 0.142h-0.318c-0.181 0-0.335-0.047-0.463-0.142-0.235-0.178-0.35-0.475-0.35-0.891 0-0.169 0.021-0.321 0.065-0.454 0.042-0.134 0.098-0.243 0.166-0.324 0.14-0.163 0.294-0.243 0.463-0.243 0.018 0 0.030 0.006 0.042 0.018s0.018 0.027 0.018 0.042v0.6c0 0.042-0.024 0.074-0.071 0.098s-0.083 0.056-0.107 0.092c-0.024 0.036-0.036 0.098-0.036 0.178 0 0.083 0.018 0.148 0.056 0.199 0.042 0.047 0.095 0.074 0.166 0.074z"></path>
<path d="M3.046 17.802v-0.57c0-0.021 0.006-0.039 0.021-0.053s0.033-0.021 0.053-0.021h1.79c0.021 0 0.039 0.006 0.053 0.021s0.021 0.033 0.021 0.053v0.57c0 0.021-0.006 0.039-0.021 0.053s-0.033 0.021-0.053 0.021h-0.591v0.555h0.591c0.021 0 0.039 0.006 0.053 0.021s0.021 0.033 0.021 0.053v0.57c0 0.021-0.006 0.039-0.021 0.053s-0.033 0.021-0.053 0.021h-1.79c-0.021 0-0.039-0.006-0.053-0.021s-0.021-0.033-0.021-0.053v-0.57c0-0.021 0.006-0.039 0.021-0.053s0.033-0.021 0.053-0.021h0.567v-0.555h-0.567c-0.021 0-0.039-0.006-0.053-0.021-0.012-0.015-0.021-0.033-0.021-0.053z"></path>
<path d="M3.046 15.445v-0.514c0-0.021 0.006-0.039 0.021-0.053s0.033-0.021 0.053-0.021h1.79c0.021 0 0.039 0.009 0.053 0.021 0.015 0.015 0.021 0.033 0.021 0.053v0.445c0 0.045-0.021 0.080-0.059 0.11l-0.772 0.606h0.754c0.021 0 0.039 0.006 0.053 0.021s0.021 0.033 0.021 0.053v0.517c0 0.021-0.006 0.039-0.021 0.053s-0.033 0.021-0.053 0.021h-1.79c-0.021 0-0.039-0.006-0.053-0.021s-0.021-0.033-0.021-0.053v-0.448c0-0.045 0.018-0.080 0.056-0.107l0.834-0.606h-0.813c-0.021 0-0.039-0.006-0.053-0.021-0.012-0.018-0.021-0.036-0.021-0.056z"></path>
<path d="M3.85 12.411h0.33c0.187 0 0.341 0.047 0.466 0.14s0.214 0.214 0.264 0.362c0.053 0.148 0.077 0.327 0.077 0.528s-0.027 0.38-0.077 0.528c-0.053 0.148-0.14 0.27-0.264 0.362s-0.282 0.14-0.469 0.14h-0.318c-0.273 0-0.475-0.095-0.611-0.288s-0.202-0.439-0.202-0.745 0.068-0.552 0.202-0.745 0.335-0.282 0.603-0.282zM3.806 13.726h0.419c0.071 0 0.128-0.027 0.166-0.077s0.056-0.119 0.056-0.208c0-0.086-0.021-0.154-0.059-0.208-0.039-0.050-0.095-0.077-0.166-0.077h-0.413c-0.071 0-0.128 0.027-0.166 0.077s-0.059 0.119-0.059 0.208c0 0.086 0.018 0.154 0.056 0.208 0.042 0.050 0.095 0.077 0.166 0.077z"></path>
<path d="M4.417 11.129v-0.947c0-0.021 0.006-0.039 0.021-0.053s0.033-0.021 0.053-0.021h0.419c0.021 0 0.039 0.009 0.053 0.021 0.015 0.015 0.021 0.033 0.021 0.053v1.618c0 0.021-0.006 0.039-0.021 0.053s-0.033 0.021-0.053 0.021h-1.79c-0.021 0-0.039-0.006-0.053-0.021s-0.021-0.033-0.021-0.053v-0.6c0-0.021 0.006-0.039 0.021-0.053s0.033-0.021 0.053-0.021h1.297z"></path>
<path d="M3.85 7.7h0.33c0.187 0 0.341 0.048 0.466 0.14s0.214 0.214 0.264 0.362c0.053 0.148 0.077 0.327 0.077 0.528s-0.027 0.38-0.077 0.528c-0.053 0.148-0.14 0.27-0.264 0.362s-0.282 0.14-0.469 0.14h-0.318c-0.273 0-0.475-0.095-0.611-0.288-0.137-0.19-0.202-0.439-0.202-0.745s0.068-0.552 0.202-0.745 0.335-0.282 0.603-0.282zM3.806 9.012h0.419c0.071 0 0.128-0.027 0.166-0.077s0.056-0.119 0.056-0.208c0-0.086-0.021-0.154-0.059-0.208-0.039-0.050-0.095-0.077-0.166-0.077h-0.413c-0.071 0-0.128 0.027-0.166 0.077s-0.059 0.119-0.059 0.208c0 0.086 0.018 0.154 0.056 0.208 0.042 0.053 0.095 0.077 0.166 0.077z"></path>
<path d="M3.791 6.18v-0.804c0-0.021 0.006-0.039 0.021-0.053s0.033-0.021 0.053-0.021h0.294c0.282 0 0.49 0.095 0.626 0.288 0.137 0.19 0.205 0.445 0.205 0.757 0 0.315-0.065 0.567-0.199 0.757s-0.338 0.288-0.614 0.288h-0.318c-0.14 0-0.261-0.027-0.368-0.083-0.107-0.053-0.193-0.131-0.255-0.229-0.125-0.193-0.19-0.436-0.19-0.733 0-0.148 0.018-0.282 0.050-0.407 0.033-0.122 0.074-0.22 0.122-0.294s0.101-0.137 0.157-0.187c0.098-0.089 0.187-0.137 0.264-0.137 0.015 0 0.030 0.006 0.042 0.018s0.018 0.027 0.018 0.042v0.626c0 0.036-0.009 0.062-0.024 0.080-0.059 0.056-0.086 0.137-0.086 0.234s0.018 0.175 0.056 0.232c0.036 0.056 0.083 0.083 0.143 0.083h0.445c0.071 0 0.125-0.027 0.163-0.083s0.059-0.134 0.059-0.234c0-0.101-0.021-0.178-0.059-0.232s-0.086-0.083-0.14-0.083v0.172c0 0.021-0.006 0.039-0.021 0.053s-0.033 0.021-0.053 0.021h-0.309c-0.021 0-0.039-0.006-0.053-0.021-0.021-0.012-0.030-0.030-0.030-0.050z"></path>
<path d="M3.046 3.586v-0.579c0-0.018 0.006-0.030 0.018-0.042s0.024-0.018 0.039-0.018c0.012 0 0.024 0.003 0.036 0.009l1.155 0.698h0.617c0.021 0 0.039 0.006 0.053 0.021s0.021 0.033 0.021 0.053v0.591c0 0.021-0.006 0.039-0.021 0.053s-0.033 0.021-0.053 0.021h-0.617l-1.155 0.695c-0.012 0.006-0.024 0.009-0.036 0.009s-0.027-0.006-0.039-0.018c-0.012-0.012-0.018-0.027-0.018-0.042v-0.585c0-0.050 0.021-0.089 0.062-0.113l0.549-0.312-0.54-0.327c-0.047-0.027-0.071-0.068-0.071-0.116z"></path>
<path d="M28.833 31.979h-1.181c-0.3 0-0.537-0.071-0.712-0.217s-0.261-0.332-0.261-0.558c0-0.229 0.074-0.41 0.223-0.543s0.398-0.202 0.751-0.202h0.419v-0.606c0-0.024 0.009-0.045 0.027-0.059 0.018-0.018 0.036-0.027 0.059-0.027h0.68c0.024 0 0.045 0.009 0.059 0.027 0.018 0.018 0.027 0.036 0.027 0.059v2.042c0 0.024-0.009 0.045-0.027 0.059s-0.039 0.024-0.062 0.024zM28.067 31.391v-0.347h-0.401c-0.047 0-0.089 0.015-0.119 0.045s-0.045 0.071-0.045 0.125c0 0.053 0.015 0.095 0.045 0.131 0.030 0.033 0.068 0.050 0.119 0.050h0.401z"></path>
<path d="M25.526 30.382h-1.262c-0.024 0-0.045-0.009-0.059-0.027-0.018-0.018-0.027-0.036-0.027-0.059v-0.445c0-0.024 0.009-0.045 0.027-0.059 0.018-0.018 0.036-0.027 0.059-0.027h1.998c0.024 0 0.045 0.009 0.059 0.027 0.018 0.018 0.027 0.036 0.027 0.059v2.042c0 0.024-0.009 0.045-0.027 0.059-0.018 0.018-0.036 0.027-0.059 0.027h-1.965c-0.024 0-0.045-0.009-0.059-0.027-0.018-0.018-0.027-0.036-0.027-0.059v-0.445c0-0.024 0.009-0.045 0.027-0.059 0.018-0.018 0.036-0.027 0.059-0.027h1.229v-0.199h-1.057c-0.024 0-0.045-0.009-0.059-0.027-0.018-0.018-0.027-0.036-0.027-0.059v-0.41c0-0.024 0.009-0.045 0.027-0.059 0.018-0.018 0.036-0.027 0.059-0.027h1.057v-0.199z"></path>
<path d="M21.346 29.863c-0.003-0.009-0.006-0.021-0.006-0.036s0.006-0.030 0.021-0.042 0.030-0.021 0.047-0.021h0.718c0.062 0 0.107 0.027 0.134 0.080l0.279 0.626h0.264v-0.62c0-0.024 0.009-0.045 0.027-0.059 0.018-0.018 0.036-0.027 0.059-0.027h0.683c0.024 0 0.045 0.009 0.059 0.027 0.018 0.018 0.027 0.036 0.027 0.059v2.042c0 0.024-0.009 0.045-0.027 0.059-0.018 0.018-0.036 0.027-0.059 0.027h-1.229c-0.288 0-0.517-0.068-0.686-0.205s-0.252-0.324-0.252-0.558c0-0.288 0.11-0.493 0.332-0.623l-0.392-0.73zM22.804 31.391v-0.335h-0.395c-0.047 0-0.083 0.015-0.107 0.045-0.027 0.030-0.039 0.068-0.039 0.116s0.012 0.086 0.036 0.122c0.024 0.036 0.059 0.053 0.11 0.053h0.395z"></path>
<path d="M20.856 31.979h-2.010c-0.024 0-0.045-0.009-0.059-0.027-0.018-0.018-0.027-0.036-0.027-0.059v-0.481c0-0.024 0.009-0.045 0.027-0.059 0.018-0.018 0.036-0.027 0.059-0.027h1.241v-0.202h-1.036c-0.024 0-0.045-0.009-0.059-0.027-0.018-0.018-0.027-0.036-0.027-0.059v-0.478c0-0.024 0.009-0.045 0.027-0.059 0.018-0.018 0.036-0.027 0.059-0.027h1.036v-0.626c0-0.024 0.009-0.045 0.027-0.059 0.018-0.018 0.036-0.027 0.059-0.027h0.683c0.024 0 0.045 0.009 0.059 0.027 0.018 0.018 0.027 0.036 0.027 0.059v2.042c0 0.024-0.009 0.045-0.027 0.059-0.015 0.021-0.036 0.030-0.059 0.030z"></path>
<path d="M16.053 31.059v-0.377c0-0.211 0.053-0.389 0.157-0.531 0.107-0.142 0.243-0.243 0.413-0.303s0.371-0.089 0.603-0.089 0.433 0.030 0.603 0.089c0.169 0.059 0.309 0.16 0.413 0.303 0.107 0.142 0.157 0.321 0.157 0.537v0.365c0 0.309-0.11 0.543-0.327 0.698s-0.502 0.232-0.849 0.232c-0.347 0-0.629-0.077-0.849-0.232-0.214-0.154-0.321-0.386-0.321-0.692zM17.55 31.112v-0.478c0-0.083-0.030-0.145-0.086-0.187-0.059-0.045-0.137-0.065-0.235-0.065s-0.178 0.024-0.235 0.068c-0.059 0.045-0.086 0.107-0.086 0.19v0.472c0 0.083 0.030 0.145 0.086 0.19 0.059 0.045 0.137 0.068 0.235 0.068s0.178-0.021 0.235-0.065c0.059-0.050 0.086-0.113 0.086-0.193z"></path>
<path d="M13.287 29.863c-0.003-0.009-0.006-0.021-0.006-0.036s0.006-0.030 0.021-0.042c0.015-0.015 0.030-0.021 0.050-0.021h0.718c0.062 0 0.107 0.027 0.134 0.080l0.279 0.626h0.264v-0.62c0-0.024 0.009-0.045 0.027-0.059 0.018-0.018 0.036-0.027 0.059-0.027h0.683c0.024 0 0.045 0.009 0.059 0.027 0.018 0.018 0.027 0.036 0.027 0.059v2.042c0 0.024-0.009 0.045-0.027 0.059-0.018 0.018-0.036 0.027-0.059 0.027h-1.229c-0.288 0-0.517-0.068-0.686-0.205s-0.252-0.324-0.252-0.558c0-0.288 0.11-0.493 0.332-0.623l-0.395-0.73zM14.744 31.391v-0.335h-0.395c-0.047 0-0.083 0.015-0.107 0.045-0.027 0.030-0.039 0.068-0.039 0.116s0.012 0.086 0.036 0.122c0.024 0.036 0.059 0.053 0.11 0.053h0.395z"></path>
<path d="M11.304 31.979h-0.579c-0.024 0-0.045-0.009-0.059-0.027-0.018-0.018-0.027-0.036-0.027-0.059v-2.042c0-0.024 0.009-0.045 0.027-0.059 0.018-0.018 0.036-0.027 0.059-0.027h0.573c0.024 0 0.045 0.009 0.059 0.027 0.018 0.018 0.027 0.036 0.027 0.059v0.98l0.232-0.454c0.012-0.027 0.033-0.045 0.056-0.059 0.027-0.015 0.050-0.021 0.077-0.021h0.214c0.036 0 0.065 0.009 0.089 0.030 0.024 0.018 0.039 0.036 0.045 0.050l0.232 0.454v-0.98c0-0.024 0.009-0.045 0.027-0.059 0.018-0.018 0.036-0.027 0.059-0.027h0.573c0.024 0 0.045 0.009 0.059 0.027 0.018 0.018 0.027 0.036 0.027 0.059v2.042c0 0.024-0.009 0.045-0.027 0.059-0.018 0.018-0.036 0.027-0.059 0.027h-0.579c-0.059 0-0.104-0.030-0.137-0.086l-0.413-0.76-0.413 0.76c-0.036 0.056-0.083 0.086-0.143 0.086z"></path>
<path d="M9.766 29.765h0.597c0.018 0 0.036 0.006 0.050 0.021s0.021 0.027 0.021 0.039c0 0.012 0 0.021-0.003 0.030l-0.689 2.019c-0.018 0.068-0.065 0.104-0.143 0.104h-0.879c-0.077 0-0.125-0.036-0.143-0.104l-0.689-2.019c-0.003-0.006-0.003-0.015-0.003-0.030 0-0.012 0.006-0.027 0.021-0.039 0.015-0.015 0.030-0.021 0.050-0.021h0.597c0.068 0 0.116 0.036 0.143 0.107l0.080 0.223h0.772l0.080-0.223c0.021-0.071 0.068-0.107 0.137-0.107zM8.935 30.712l0.226 0.656 0.226-0.656h-0.451z"></path>
<path d="M6.082 31.979h-0.591c-0.024 0-0.045-0.009-0.059-0.027-0.018-0.018-0.027-0.036-0.027-0.059v-2.042c0-0.024 0.009-0.045 0.027-0.059 0.018-0.018 0.036-0.027 0.059-0.027h0.508c0.050 0 0.092 0.021 0.128 0.065l0.689 0.879v-0.861c0-0.024 0.009-0.045 0.027-0.059 0.018-0.018 0.036-0.027 0.059-0.027h0.588c0.024 0 0.045 0.009 0.059 0.027 0.018 0.018 0.027 0.036 0.027 0.059v2.042c0 0.024-0.009 0.045-0.027 0.059-0.018 0.018-0.036 0.027-0.059 0.027h-0.511c-0.050 0-0.092-0.021-0.125-0.062l-0.689-0.95v0.929c0 0.024-0.009 0.045-0.027 0.059-0.015 0.018-0.036 0.027-0.056 0.027z"></path>
<path d="M4.088 31.112v-0.478c0-0.083-0.030-0.145-0.086-0.187-0.059-0.045-0.134-0.065-0.229-0.065s-0.16 0.015-0.205 0.042c-0.042 0.027-0.077 0.068-0.107 0.122s-0.065 0.080-0.113 0.080h-0.683c-0.018 0-0.036-0.006-0.050-0.021s-0.021-0.030-0.021-0.047c0-0.193 0.092-0.368 0.279-0.528 0.092-0.080 0.217-0.142 0.371-0.19s0.335-0.074 0.543-0.074c0.208 0 0.398 0.033 0.57 0.095s0.312 0.166 0.419 0.309c0.107 0.142 0.16 0.318 0.16 0.525v0.365c0 0.208-0.053 0.383-0.16 0.528-0.202 0.267-0.54 0.401-1.015 0.401-0.193 0-0.365-0.024-0.519-0.074-0.154-0.047-0.276-0.113-0.371-0.19-0.184-0.16-0.279-0.335-0.279-0.528 0-0.018 0.006-0.036 0.021-0.047 0.015-0.015 0.030-0.021 0.050-0.021h0.683c0.047 0 0.083 0.027 0.113 0.080s0.062 0.095 0.107 0.122c0.042 0.027 0.11 0.042 0.205 0.042s0.169-0.021 0.229-0.065c0.059-0.050 0.089-0.113 0.089-0.193z"></path>
<path d="M1.348 30.382h-1.262c-0.024 0-0.045-0.009-0.059-0.027-0.018-0.018-0.027-0.036-0.027-0.059v-0.445c0-0.024 0.009-0.045 0.027-0.059 0.018-0.018 0.036-0.027 0.059-0.027h1.998c0.024 0 0.045 0.009 0.059 0.027 0.018 0.018 0.027 0.036 0.027 0.059v2.042c0 0.024-0.009 0.045-0.027 0.059-0.018 0.018-0.036 0.027-0.059 0.027h-1.968c-0.024 0-0.045-0.009-0.059-0.027-0.018-0.018-0.027-0.036-0.027-0.059v-0.445c0-0.024 0.009-0.045 0.027-0.059 0.018-0.018 0.036-0.027 0.059-0.027h1.229v-0.199h-1.054c-0.024 0-0.045-0.009-0.059-0.027-0.018-0.018-0.027-0.036-0.027-0.059v-0.41c0-0.024 0.009-0.045 0.027-0.059 0.018-0.018 0.036-0.027 0.059-0.027h1.057v-0.199z"></path>
<path d="M31.979 3.167v1.181c0 0.3-0.071 0.537-0.217 0.712s-0.332 0.261-0.558 0.261c-0.229 0-0.41-0.074-0.543-0.223s-0.202-0.398-0.202-0.751v-0.419h-0.606c-0.024 0-0.045-0.009-0.059-0.027-0.018-0.018-0.027-0.036-0.027-0.059v-0.68c0-0.024 0.009-0.045 0.027-0.059 0.018-0.018 0.036-0.027 0.059-0.027h2.042c0.024 0 0.045 0.009 0.059 0.027s0.024 0.039 0.024 0.062zM31.391 3.933h-0.347v0.401c0 0.048 0.015 0.089 0.045 0.119s0.071 0.045 0.125 0.045c0.053 0 0.095-0.015 0.131-0.045 0.033-0.030 0.050-0.068 0.050-0.119v-0.401z"></path>
<path d="M30.382 6.474v1.262c0 0.024-0.009 0.045-0.027 0.059-0.018 0.018-0.036 0.027-0.059 0.027h-0.445c-0.024 0-0.045-0.009-0.059-0.027-0.018-0.018-0.027-0.036-0.027-0.059v-1.998c0-0.024 0.009-0.045 0.027-0.059 0.018-0.018 0.036-0.027 0.059-0.027h2.042c0.024 0 0.045 0.009 0.059 0.027 0.018 0.018 0.027 0.036 0.027 0.059v1.965c0 0.024-0.009 0.045-0.027 0.059-0.018 0.018-0.036 0.027-0.059 0.027h-0.445c-0.024 0-0.045-0.009-0.059-0.027-0.018-0.018-0.027-0.036-0.027-0.059v-1.229h-0.199v1.057c0 0.024-0.009 0.045-0.027 0.059-0.018 0.018-0.036 0.027-0.059 0.027h-0.41c-0.024 0-0.045-0.009-0.059-0.027-0.018-0.018-0.027-0.036-0.027-0.059v-1.057h-0.199z"></path>
<path d="M29.863 10.654c-0.009 0.003-0.021 0.006-0.036 0.006s-0.030-0.006-0.042-0.021c-0.015-0.015-0.021-0.030-0.021-0.050v-0.718c0-0.062 0.027-0.107 0.080-0.134l0.626-0.279v-0.264h-0.62c-0.024 0-0.045-0.009-0.059-0.027-0.018-0.018-0.027-0.036-0.027-0.059v-0.683c0-0.024 0.009-0.045 0.027-0.059 0.018-0.018 0.036-0.027 0.059-0.027h2.042c0.024 0 0.045 0.009 0.059 0.027 0.018 0.018 0.027 0.036 0.027 0.059v1.229c0 0.288-0.068 0.517-0.205 0.686s-0.324 0.252-0.558 0.252c-0.288 0-0.493-0.11-0.623-0.332l-0.73 0.395zM31.391 9.196h-0.335v0.395c0 0.047 0.015 0.083 0.045 0.107 0.030 0.027 0.068 0.039 0.116 0.039s0.086-0.012 0.122-0.036c0.036-0.024 0.053-0.059 0.053-0.11v-0.395z"></path>
<path d="M31.979 11.144v2.010c0 0.024-0.009 0.045-0.027 0.059-0.018 0.018-0.036 0.027-0.059 0.027h-0.481c-0.024 0-0.045-0.009-0.059-0.027-0.018-0.018-0.027-0.036-0.027-0.059v-1.241h-0.202v1.036c0 0.024-0.009 0.045-0.027 0.059-0.018 0.018-0.036 0.027-0.059 0.027h-0.478c-0.024 0-0.045-0.009-0.059-0.027-0.018-0.018-0.027-0.036-0.027-0.059v-1.036h-0.626c-0.024 0-0.045-0.009-0.059-0.027-0.018-0.018-0.027-0.036-0.027-0.059v-0.683c0-0.024 0.009-0.045 0.027-0.059 0.018-0.018 0.036-0.027 0.059-0.027h2.042c0.024 0 0.045 0.009 0.059 0.027 0.021 0.015 0.030 0.036 0.030 0.059z"></path>
<path d="M31.059 15.947h-0.377c-0.211 0-0.389-0.053-0.531-0.157-0.142-0.107-0.243-0.243-0.303-0.413s-0.089-0.371-0.089-0.603c0-0.232 0.030-0.433 0.089-0.603s0.16-0.309 0.303-0.413c0.142-0.107 0.321-0.157 0.537-0.157h0.365c0.309 0 0.543 0.11 0.698 0.327s0.232 0.502 0.232 0.849-0.077 0.629-0.232 0.849c-0.154 0.214-0.386 0.321-0.692 0.321zM31.112 14.45h-0.478c-0.083 0-0.145 0.030-0.187 0.086-0.045 0.059-0.065 0.137-0.065 0.235s0.024 0.178 0.068 0.235c0.045 0.059 0.107 0.086 0.19 0.086h0.472c0.083 0 0.145-0.030 0.19-0.086 0.045-0.059 0.068-0.137 0.068-0.235s-0.021-0.178-0.065-0.235c-0.050-0.059-0.113-0.086-0.193-0.086z"></path>
<path d="M29.863 18.713c-0.009 0.003-0.021 0.006-0.036 0.006s-0.030-0.006-0.042-0.021c-0.015-0.015-0.021-0.030-0.021-0.050v-0.718c0-0.062 0.027-0.107 0.080-0.134l0.626-0.279v-0.264h-0.62c-0.024 0-0.045-0.009-0.059-0.027-0.018-0.018-0.027-0.036-0.027-0.059v-0.683c0-0.024 0.009-0.045 0.027-0.059 0.018-0.018 0.036-0.027 0.059-0.027h2.042c0.024 0 0.045 0.009 0.059 0.027 0.018 0.018 0.027 0.036 0.027 0.059v1.229c0 0.288-0.068 0.517-0.205 0.686s-0.324 0.252-0.558 0.252c-0.288 0-0.493-0.11-0.623-0.332l-0.73 0.395zM31.391 17.256h-0.335v0.395c0 0.047 0.015 0.083 0.045 0.107 0.030 0.027 0.068 0.039 0.116 0.039s0.086-0.012 0.122-0.036c0.036-0.024 0.053-0.059 0.053-0.11v-0.395z"></path>
<path d="M31.979 20.696v0.579c0 0.024-0.009 0.045-0.027 0.059-0.018 0.018-0.036 0.027-0.059 0.027h-2.042c-0.024 0-0.045-0.009-0.059-0.027-0.018-0.018-0.027-0.036-0.027-0.059v-0.573c0-0.024 0.009-0.045 0.027-0.059 0.018-0.018 0.036-0.027 0.059-0.027h0.98l-0.454-0.232c-0.027-0.012-0.045-0.033-0.059-0.056-0.015-0.027-0.021-0.050-0.021-0.077v-0.214c0-0.036 0.009-0.065 0.030-0.089 0.018-0.024 0.036-0.039 0.050-0.045l0.454-0.232h-0.98c-0.024 0-0.045-0.009-0.059-0.027-0.018-0.018-0.027-0.036-0.027-0.059v-0.573c0-0.024 0.009-0.045 0.027-0.059 0.018-0.018 0.036-0.027 0.059-0.027h2.042c0.024 0 0.045 0.009 0.059 0.027 0.018 0.018 0.027 0.036 0.027 0.059v0.579c0 0.059-0.030 0.104-0.086 0.137l-0.76 0.413 0.76 0.413c0.056 0.036 0.086 0.083 0.086 0.142z"></path>
<path d="M29.765 22.234v-0.597c0-0.018 0.006-0.036 0.021-0.050s0.027-0.021 0.039-0.021c0.012 0 0.021 0 0.030 0.003l2.019 0.689c0.068 0.018 0.104 0.065 0.104 0.142v0.879c0 0.077-0.036 0.125-0.104 0.142l-2.019 0.689c-0.006 0.003-0.015 0.003-0.030 0.003-0.012 0-0.027-0.006-0.039-0.021-0.015-0.015-0.021-0.030-0.021-0.050v-0.597c0-0.068 0.036-0.116 0.107-0.142l0.223-0.080v-0.772l-0.223-0.080c-0.071-0.021-0.107-0.068-0.107-0.137zM30.712 23.065l0.656-0.226-0.656-0.226v0.451z"></path>
<path d="M31.979 25.918v0.591c0 0.024-0.009 0.045-0.027 0.059-0.018 0.018-0.036 0.027-0.059 0.027h-2.042c-0.024 0-0.045-0.009-0.059-0.027-0.018-0.018-0.027-0.036-0.027-0.059v-0.508c0-0.050 0.021-0.092 0.065-0.128l0.879-0.689h-0.861c-0.024 0-0.045-0.009-0.059-0.027-0.018-0.018-0.027-0.036-0.027-0.059v-0.588c0-0.024 0.009-0.045 0.027-0.059 0.018-0.018 0.036-0.027 0.059-0.027h2.042c0.024 0 0.045 0.009 0.059 0.027 0.018 0.018 0.027 0.036 0.027 0.059v0.511c0 0.050-0.021 0.092-0.062 0.125l-0.95 0.689h0.929c0.024 0 0.045 0.009 0.059 0.027 0.018 0.015 0.027 0.036 0.027 0.056z"></path>
<path d="M31.112 27.912h-0.478c-0.083 0-0.145 0.030-0.187 0.086-0.045 0.059-0.065 0.134-0.065 0.229s0.015 0.16 0.042 0.205c0.027 0.042 0.068 0.077 0.122 0.107s0.080 0.065 0.080 0.113v0.683c0 0.018-0.006 0.036-0.021 0.050s-0.030 0.021-0.047 0.021c-0.193 0-0.368-0.092-0.528-0.279-0.080-0.092-0.142-0.217-0.19-0.371s-0.074-0.335-0.074-0.543c0-0.208 0.033-0.398 0.095-0.57s0.166-0.312 0.309-0.419c0.142-0.107 0.318-0.16 0.525-0.16h0.365c0.208 0 0.383 0.053 0.528 0.16 0.267 0.202 0.401 0.54 0.401 1.015 0 0.193-0.024 0.365-0.074 0.519-0.047 0.154-0.113 0.276-0.19 0.371-0.16 0.184-0.335 0.279-0.528 0.279-0.018 0-0.036-0.006-0.047-0.021-0.015-0.015-0.021-0.030-0.021-0.050v-0.683c0-0.047 0.027-0.083 0.080-0.113s0.095-0.062 0.122-0.107c0.027-0.042 0.042-0.11 0.042-0.205s-0.021-0.169-0.065-0.229c-0.050-0.059-0.113-0.089-0.193-0.089z"></path>
<path d="M30.382 30.652v1.262c0 0.024-0.009 0.045-0.027 0.059-0.018 0.018-0.036 0.027-0.059 0.027h-0.445c-0.024 0-0.045-0.009-0.059-0.027-0.018-0.018-0.027-0.036-0.027-0.059v-1.998c0-0.024 0.009-0.045 0.027-0.059 0.018-0.018 0.036-0.027 0.059-0.027h2.042c0.024 0 0.045 0.009 0.059 0.027 0.018 0.018 0.027 0.036 0.027 0.059v1.965c0 0.024-0.009 0.045-0.027 0.059-0.018 0.018-0.036 0.027-0.059 0.027h-0.445c-0.024 0-0.045-0.009-0.059-0.027-0.018-0.018-0.027-0.036-0.027-0.059v-1.229h-0.199v1.057c0 0.024-0.009 0.045-0.027 0.059-0.018 0.018-0.036 0.027-0.059 0.027h-0.41c-0.024 0-0.045-0.009-0.059-0.027-0.018-0.018-0.027-0.036-0.027-0.059v-1.057h-0.199z"></path>
<path d="M0.021 28.833v-1.181c0-0.3 0.071-0.537 0.217-0.712s0.332-0.261 0.558-0.261c0.229 0 0.41 0.074 0.543 0.223s0.202 0.398 0.202 0.751v0.419h0.606c0.024 0 0.045 0.009 0.059 0.027 0.018 0.018 0.027 0.036 0.027 0.059v0.68c0 0.024-0.009 0.045-0.027 0.059-0.018 0.018-0.036 0.027-0.059 0.027h-2.039c-0.024 0-0.045-0.009-0.059-0.027-0.018-0.018-0.027-0.039-0.027-0.062zM0.609 28.067h0.347v-0.401c0-0.047-0.015-0.089-0.045-0.119s-0.071-0.045-0.125-0.045c-0.053 0-0.095 0.015-0.131 0.045-0.033 0.030-0.050 0.068-0.050 0.119v0.401z"></path>
<path d="M1.618 25.526v-1.262c0-0.024 0.009-0.045 0.027-0.059 0.018-0.018 0.036-0.027 0.059-0.027h0.445c0.024 0 0.045 0.009 0.059 0.027 0.018 0.018 0.027 0.036 0.027 0.059v1.998c0 0.024-0.009 0.045-0.027 0.059-0.018 0.018-0.036 0.027-0.059 0.027h-2.042c-0.024 0-0.045-0.009-0.059-0.027-0.018-0.018-0.027-0.036-0.027-0.059v-1.965c0-0.024 0.009-0.045 0.027-0.059 0.018-0.018 0.036-0.027 0.059-0.027h0.445c0.024 0 0.045 0.009 0.059 0.027 0.018 0.018 0.027 0.036 0.027 0.059v1.229h0.199v-1.057c0-0.024 0.009-0.045 0.027-0.059 0.018-0.018 0.036-0.027 0.059-0.027h0.41c0.024 0 0.045 0.009 0.059 0.027 0.018 0.018 0.027 0.036 0.027 0.059v1.057h0.199z"></path>
<path d="M2.137 21.346c0.009-0.003 0.021-0.006 0.036-0.006s0.030 0.006 0.042 0.021c0.015 0.015 0.021 0.030 0.021 0.047v0.718c0 0.062-0.027 0.107-0.080 0.134l-0.626 0.279v0.264h0.62c0.024 0 0.045 0.009 0.059 0.027 0.018 0.018 0.027 0.036 0.027 0.059v0.683c0 0.024-0.009 0.045-0.027 0.059-0.018 0.018-0.036 0.027-0.059 0.027h-2.042c-0.024 0-0.045-0.009-0.059-0.027-0.018-0.018-0.027-0.036-0.027-0.059v-1.229c0-0.288 0.068-0.517 0.205-0.686s0.324-0.252 0.558-0.252c0.288 0 0.493 0.11 0.623 0.332l0.73-0.392zM0.609 22.804h0.335v-0.395c0-0.047-0.015-0.083-0.045-0.107-0.030-0.027-0.068-0.039-0.116-0.039s-0.086 0.012-0.122 0.036c-0.036 0.024-0.053 0.059-0.053 0.11v0.395z"></path>
<path d="M0.021 20.856v-2.010c0-0.024 0.009-0.045 0.027-0.059 0.018-0.018 0.036-0.027 0.059-0.027h0.481c0.024 0 0.045 0.009 0.059 0.027 0.018 0.018 0.027 0.036 0.027 0.059v1.241h0.202v-1.036c0-0.024 0.009-0.045 0.027-0.059 0.018-0.018 0.036-0.027 0.059-0.027h0.478c0.024 0 0.045 0.009 0.059 0.027 0.018 0.018 0.027 0.036 0.027 0.059v1.036h0.626c0.024 0 0.045 0.009 0.059 0.027 0.018 0.018 0.027 0.036 0.027 0.059v0.683c0 0.024-0.009 0.045-0.027 0.059-0.018 0.018-0.036 0.027-0.059 0.027h-2.045c-0.024 0-0.045-0.009-0.059-0.027-0.018-0.015-0.027-0.036-0.027-0.059z"></path>
<path d="M0.941 16.053h0.377c0.211 0 0.389 0.053 0.531 0.157 0.143 0.107 0.243 0.243 0.303 0.413s0.089 0.371 0.089 0.603-0.030 0.433-0.089 0.603c-0.059 0.169-0.16 0.309-0.303 0.413-0.143 0.107-0.321 0.157-0.537 0.157h-0.365c-0.309 0-0.543-0.11-0.698-0.327s-0.232-0.502-0.232-0.849c0-0.347 0.077-0.629 0.232-0.849 0.154-0.214 0.386-0.321 0.692-0.321zM0.888 17.55h0.478c0.083 0 0.145-0.030 0.187-0.086 0.045-0.059 0.065-0.137 0.065-0.235s-0.024-0.178-0.068-0.235c-0.045-0.059-0.107-0.086-0.19-0.086h-0.469c-0.083 0-0.145 0.030-0.19 0.086-0.045 0.059-0.068 0.137-0.068 0.235s0.021 0.178 0.065 0.235c0.047 0.059 0.11 0.086 0.19 0.086z"></path>
<path d="M2.137 13.287c0.009-0.003 0.021-0.006 0.036-0.006s0.030 0.006 0.042 0.021c0.015 0.015 0.021 0.030 0.021 0.050v0.718c0 0.062-0.027 0.107-0.080 0.134l-0.626 0.279v0.264h0.62c0.024 0 0.045 0.009 0.059 0.027 0.018 0.018 0.027 0.036 0.027 0.059v0.683c0 0.024-0.009 0.045-0.027 0.059-0.018 0.018-0.036 0.027-0.059 0.027h-2.042c-0.024 0-0.045-0.009-0.059-0.027-0.018-0.018-0.027-0.036-0.027-0.059v-1.229c0-0.288 0.068-0.517 0.205-0.686s0.324-0.252 0.558-0.252c0.288 0 0.493 0.11 0.623 0.332l0.73-0.395zM0.609 14.744h0.335v-0.395c0-0.047-0.015-0.083-0.045-0.107-0.030-0.027-0.068-0.039-0.116-0.039s-0.086 0.012-0.122 0.036c-0.036 0.024-0.053 0.059-0.053 0.11v0.395z"></path>
<path d="M0.021 11.304v-0.579c0-0.024 0.009-0.045 0.027-0.059 0.018-0.018 0.036-0.027 0.059-0.027h2.042c0.024 0 0.045 0.009 0.059 0.027 0.018 0.018 0.027 0.036 0.027 0.059v0.573c0 0.024-0.009 0.045-0.027 0.059-0.018 0.018-0.036 0.027-0.059 0.027h-0.98l0.454 0.232c0.027 0.012 0.045 0.033 0.059 0.056 0.015 0.027 0.021 0.050 0.021 0.077v0.214c0 0.036-0.009 0.065-0.030 0.089-0.018 0.024-0.036 0.039-0.050 0.045l-0.454 0.232h0.98c0.024 0 0.045 0.009 0.059 0.027 0.018 0.018 0.027 0.036 0.027 0.059v0.573c0 0.024-0.009 0.045-0.027 0.059-0.018 0.018-0.036 0.027-0.059 0.027h-2.042c-0.024 0-0.045-0.009-0.059-0.027-0.018-0.018-0.027-0.036-0.027-0.059v-0.579c0-0.059 0.030-0.104 0.086-0.137l0.76-0.413-0.76-0.419c-0.056-0.030-0.086-0.077-0.086-0.137z"></path>
<path d="M2.235 9.766v0.597c0 0.018-0.006 0.036-0.021 0.050s-0.027 0.021-0.039 0.021c-0.012 0-0.021 0-0.030-0.003l-2.019-0.689c-0.068-0.018-0.104-0.065-0.104-0.143v-0.879c0-0.077 0.036-0.125 0.104-0.143l2.019-0.689c0.006-0.003 0.015-0.003 0.030-0.003 0.012 0 0.027 0.006 0.039 0.021 0.015 0.015 0.021 0.030 0.021 0.050v0.597c0 0.068-0.036 0.116-0.107 0.143l-0.223 0.080v0.772l0.223 0.080c0.071 0.021 0.107 0.068 0.107 0.137zM1.288 8.935l-0.656 0.226 0.656 0.226v-0.451z"></path>
<path d="M0.021 6.082v-0.591c0-0.024 0.009-0.045 0.027-0.059 0.018-0.018 0.036-0.027 0.059-0.027h2.042c0.024 0 0.045 0.009 0.059 0.027 0.018 0.018 0.027 0.036 0.027 0.059v0.508c0 0.050-0.021 0.092-0.065 0.128l-0.879 0.689h0.861c0.024 0 0.045 0.009 0.059 0.027 0.018 0.018 0.027 0.036 0.027 0.059v0.588c0 0.024-0.009 0.045-0.027 0.059-0.018 0.018-0.036 0.027-0.059 0.027h-2.045c-0.024 0-0.045-0.009-0.059-0.027-0.018-0.018-0.027-0.036-0.027-0.059v-0.511c0-0.050 0.021-0.092 0.062-0.125l0.95-0.689h-0.926c-0.024 0-0.045-0.009-0.059-0.027-0.018-0.015-0.027-0.036-0.027-0.056z"></path>
<path d="M0.888 4.088h0.478c0.083 0 0.145-0.030 0.187-0.086 0.045-0.059 0.065-0.134 0.065-0.229s-0.015-0.16-0.042-0.205c-0.027-0.042-0.068-0.077-0.122-0.107s-0.080-0.065-0.080-0.113v-0.683c0-0.018 0.006-0.036 0.021-0.050s0.030-0.021 0.048-0.021c0.193 0 0.368 0.092 0.528 0.279 0.080 0.092 0.142 0.217 0.19 0.371s0.074 0.335 0.074 0.543c0 0.208-0.033 0.398-0.095 0.57s-0.166 0.312-0.309 0.419c-0.143 0.107-0.318 0.16-0.525 0.16h-0.359c-0.208 0-0.383-0.053-0.528-0.16-0.267-0.202-0.401-0.54-0.401-1.015 0-0.193 0.024-0.365 0.074-0.519 0.047-0.154 0.113-0.276 0.19-0.371 0.16-0.184 0.335-0.279 0.528-0.279 0.018 0 0.036 0.006 0.047 0.021 0.015 0.015 0.021 0.030 0.021 0.050v0.683c0 0.047-0.027 0.083-0.080 0.113s-0.095 0.062-0.122 0.107c-0.027 0.042-0.042 0.11-0.042 0.205s0.021 0.169 0.065 0.229c0.045 0.059 0.107 0.089 0.187 0.089z"></path>
<path d="M1.618 1.348v-1.262c0-0.024 0.009-0.045 0.027-0.059 0.018-0.018 0.036-0.027 0.059-0.027h0.445c0.024 0 0.045 0.009 0.059 0.027 0.018 0.018 0.027 0.036 0.027 0.059v1.998c0 0.024-0.009 0.045-0.027 0.059-0.018 0.018-0.036 0.027-0.059 0.027h-2.042c-0.024 0-0.045-0.009-0.059-0.027-0.018-0.018-0.027-0.036-0.027-0.059v-1.968c0-0.024 0.009-0.045 0.027-0.059 0.018-0.018 0.036-0.027 0.059-0.027h0.445c0.024 0 0.045 0.009 0.059 0.027 0.018 0.018 0.027 0.036 0.027 0.059v1.229h0.199v-1.054c0-0.024 0.009-0.045 0.027-0.059 0.018-0.018 0.036-0.027 0.059-0.027h0.41c0.024 0 0.045 0.009 0.059 0.027 0.018 0.018 0.027 0.036 0.027 0.059v1.057h0.199z"></path>
</symbol>
<symbol id="icon-PLT_logo_vierkant" viewBox="0 0 27 32">
<title>PLT_logo_vierkant</title>
<path d="M2.348 30.285h2.828c0.061 0 0.115 0.023 0.157 0.065 0.046 0.046 0.065 0.096 0.065 0.157v1.251c0 0.061-0.023 0.115-0.065 0.157-0.046 0.046-0.096 0.065-0.157 0.065h-4.842c-0.061 0-0.115-0.023-0.157-0.065-0.046-0.046-0.065-0.096-0.065-0.157v-5.353c0-0.061 0.023-0.111 0.065-0.157 0.046-0.046 0.096-0.065 0.157-0.065h1.792c0.061 0 0.115 0.023 0.157 0.065 0.046 0.046 0.065 0.096 0.065 0.157v3.879z"></path>
<path d="M7.954 31.985h-1.565c-0.050 0-0.092-0.019-0.127-0.054s-0.054-0.069-0.054-0.104c0-0.035 0.004-0.058 0.008-0.073l1.807-5.295c0.050-0.184 0.173-0.272 0.372-0.272h2.306c0.2 0 0.322 0.092 0.372 0.272l1.807 5.295c0.004 0.015 0.008 0.042 0.008 0.073 0 0.035-0.019 0.069-0.054 0.104s-0.081 0.054-0.127 0.054h-1.565c-0.177 0-0.303-0.092-0.372-0.28l-0.207-0.579h-2.022l-0.207 0.579c-0.081 0.184-0.203 0.28-0.38 0.28zM10.133 29.506l-0.587-1.723-0.591 1.723h1.178z"></path>
<path d="M19.73 30.158c0 1.216-0.779 1.823-2.337 1.823h-3.415c-0.061 0-0.115-0.023-0.157-0.065-0.046-0.046-0.065-0.096-0.065-0.157v-5.353c0-0.061 0.023-0.111 0.065-0.157 0.046-0.046 0.096-0.065 0.157-0.065h3.334c0.787 0 1.366 0.142 1.738 0.426s0.56 0.714 0.56 1.289v0.023c0 0.265-0.073 0.491-0.215 0.679s-0.292 0.307-0.449 0.357c0.215 0.065 0.399 0.211 0.556 0.434 0.15 0.226 0.226 0.483 0.226 0.767zM17.27 28.24c0.058-0.081 0.088-0.169 0.088-0.269s-0.031-0.184-0.088-0.257c-0.058-0.073-0.142-0.107-0.253-0.107h-1.113v0.756h1.113c0.111 0 0.196-0.042 0.253-0.123zM15.904 29.744v0.813h1.201c0.127 0 0.223-0.042 0.288-0.127s0.096-0.18 0.096-0.288v-0.008c0-0.104-0.035-0.196-0.104-0.272s-0.161-0.115-0.276-0.115h-1.205z"></path>
<path d="M1.723 7.601v2.828c0 0.061-0.023 0.111-0.065 0.157-0.046 0.046-0.096 0.065-0.157 0.065h-1.255c-0.061 0-0.115-0.023-0.157-0.065-0.046-0.046-0.065-0.096-0.065-0.157v-4.842c0-0.061 0.023-0.115 0.065-0.157 0.046-0.046 0.096-0.065 0.157-0.065h5.356c0.061 0 0.115 0.023 0.157 0.065 0.046 0.046 0.065 0.096 0.065 0.157v1.792c0 0.061-0.023 0.115-0.065 0.157-0.046 0.046-0.096 0.065-0.157 0.065h-3.879z"></path>
<path d="M0.023 13.203v-1.565c0-0.050 0.019-0.092 0.054-0.127s0.069-0.054 0.104-0.054c0.035 0 0.058 0.004 0.073 0.008l5.299 1.807c0.184 0.050 0.272 0.173 0.272 0.372v2.302c0 0.2-0.092 0.322-0.272 0.372l-5.299 1.807c-0.015 0.004-0.042 0.008-0.073 0.008-0.035 0-0.069-0.019-0.104-0.054s-0.054-0.081-0.054-0.127v-1.565c0-0.177 0.092-0.303 0.28-0.372l0.579-0.207v-2.022l-0.579-0.207c-0.188-0.073-0.28-0.2-0.28-0.376zM2.502 15.382l1.727-0.587-1.727-0.587v1.174z"></path>
<path d="M1.846 24.975c-1.216 0-1.823-0.779-1.823-2.337v-3.415c0-0.061 0.023-0.115 0.065-0.157 0.046-0.046 0.096-0.065 0.157-0.065h5.356c0.061 0 0.115 0.023 0.157 0.065 0.046 0.046 0.065 0.096 0.065 0.157v3.33c0 0.783-0.142 1.362-0.426 1.738-0.284 0.372-0.714 0.56-1.289 0.56h-0.023c-0.265 0-0.491-0.073-0.679-0.215s-0.307-0.292-0.357-0.449c-0.065 0.215-0.211 0.399-0.434 0.556-0.226 0.15-0.483 0.23-0.771 0.23zM2.26 21.153h-0.81v1.201c0 0.127 0.042 0.223 0.127 0.288s0.18 0.096 0.288 0.096h0.008c0.104 0 0.196-0.035 0.272-0.104s0.115-0.161 0.115-0.276v-1.205zM3.768 22.515c0.081 0.058 0.169 0.088 0.269 0.088s0.184-0.031 0.257-0.088c0.073-0.058 0.107-0.142 0.107-0.253v-1.109h-0.756v1.109c0 0.111 0.042 0.196 0.123 0.253z"></path>
<path d="M24.341 7.052h-2.828c-0.061 0-0.115-0.023-0.157-0.065-0.046-0.046-0.065-0.096-0.065-0.157v-1.251c0-0.061 0.023-0.115 0.065-0.157 0.046-0.046 0.096-0.065 0.157-0.065h4.842c0.061 0 0.115 0.023 0.157 0.065 0.046 0.046 0.065 0.096 0.065 0.157v5.353c0 0.061-0.023 0.111-0.065 0.157-0.046 0.046-0.096 0.065-0.157 0.065h-1.792c-0.061 0-0.115-0.023-0.157-0.065-0.046-0.046-0.065-0.096-0.065-0.157v-3.879z"></path>
<path d="M18.736 5.356h1.565c0.050 0 0.092 0.019 0.127 0.054s0.054 0.069 0.054 0.104c0 0.035-0.004 0.058-0.008 0.073l-1.807 5.295c-0.050 0.184-0.173 0.272-0.372 0.272h-2.306c-0.2 0-0.322-0.092-0.372-0.272l-1.807-5.295c-0.004-0.015-0.008-0.042-0.008-0.073 0-0.035 0.019-0.069 0.054-0.104s0.081-0.054 0.127-0.054h1.565c0.177 0 0.303 0.092 0.372 0.28l0.207 0.579h2.022l0.207-0.579c0.077-0.188 0.203-0.28 0.38-0.28zM16.556 7.835l0.587 1.723 0.587-1.723h-1.174z"></path>
<path d="M6.96 7.179c0-1.216 0.779-1.823 2.337-1.823h3.415c0.061 0 0.115 0.023 0.157 0.065 0.046 0.046 0.065 0.096 0.065 0.157v5.353c0 0.061-0.023 0.111-0.065 0.157-0.046 0.046-0.096 0.065-0.157 0.065h-3.334c-0.787 0-1.366-0.142-1.738-0.426s-0.56-0.714-0.56-1.289v-0.023c0-0.265 0.073-0.491 0.215-0.679s0.292-0.307 0.449-0.357c-0.215-0.065-0.399-0.211-0.556-0.434-0.15-0.226-0.226-0.48-0.226-0.767zM10.782 7.593v-0.813h-1.201c-0.127 0-0.223 0.042-0.288 0.127s-0.096 0.18-0.096 0.288v0.008c0 0.104 0.035 0.196 0.104 0.272s0.161 0.115 0.276 0.115h1.205zM9.42 9.097c-0.058 0.081-0.088 0.169-0.088 0.269s0.031 0.184 0.088 0.257c0.058 0.073 0.142 0.107 0.253 0.107h1.113v-0.752h-1.113c-0.111 0-0.196 0.038-0.253 0.119z"></path>
<path d="M24.967 29.736v-2.828c0-0.061 0.023-0.115 0.065-0.157 0.046-0.046 0.096-0.065 0.157-0.065h1.251c0.061 0 0.115 0.023 0.157 0.065 0.046 0.046 0.065 0.096 0.065 0.157v4.838c0 0.061-0.023 0.115-0.065 0.157-0.046 0.046-0.096 0.065-0.157 0.065h-5.356c-0.061 0-0.115-0.023-0.157-0.065-0.046-0.046-0.065-0.096-0.065-0.157v-1.792c0-0.061 0.023-0.115 0.065-0.157 0.046-0.046 0.096-0.065 0.157-0.065h3.883z"></path>
<path d="M26.667 24.134v1.565c0 0.050-0.019 0.092-0.054 0.127s-0.069 0.054-0.104 0.054c-0.035 0-0.058-0.004-0.073-0.008l-5.299-1.807c-0.184-0.050-0.272-0.173-0.272-0.372v-2.302c0-0.2 0.092-0.322 0.272-0.372l5.299-1.807c0.015-0.004 0.042-0.008 0.073-0.008 0.035 0 0.069 0.019 0.104 0.054s0.054 0.081 0.054 0.127v1.565c0 0.177-0.092 0.303-0.28 0.372l-0.579 0.207v2.022l0.579 0.207c0.188 0.073 0.28 0.2 0.28 0.376zM24.188 21.955l-1.727 0.587 1.727 0.587v-1.174z"></path>
<path d="M24.844 12.366c1.216 0 1.823 0.779 1.823 2.337v3.415c0 0.061-0.023 0.115-0.065 0.157-0.046 0.046-0.096 0.065-0.157 0.065h-5.36c-0.061 0-0.115-0.023-0.157-0.065-0.046-0.046-0.065-0.096-0.065-0.157v-3.33c0-0.783 0.142-1.362 0.426-1.738 0.284-0.372 0.714-0.56 1.289-0.56h0.023c0.265 0 0.491 0.073 0.679 0.215s0.307 0.292 0.357 0.449c0.065-0.215 0.211-0.399 0.434-0.556 0.23-0.153 0.487-0.23 0.775-0.23zM22.922 14.822c-0.081-0.058-0.169-0.088-0.269-0.088s-0.184 0.031-0.257 0.088c-0.073 0.058-0.107 0.142-0.107 0.253v1.109h0.756v-1.109c0-0.111-0.042-0.196-0.123-0.253zM24.426 16.188h0.813v-1.201c0-0.127-0.042-0.223-0.127-0.288s-0.18-0.096-0.288-0.096h-0.008c-0.104 0-0.196 0.035-0.272 0.104s-0.115 0.161-0.115 0.276v1.205z"></path>
<path d="M0.288 0.004h1.078c0.272 0 0.487 0.065 0.648 0.2s0.238 0.303 0.238 0.51c0 0.207-0.069 0.372-0.203 0.495s-0.365 0.184-0.687 0.184h-0.38v0.553c0 0.023-0.008 0.038-0.023 0.054s-0.035 0.023-0.054 0.023h-0.618c-0.023 0-0.038-0.008-0.054-0.023s-0.023-0.035-0.023-0.054v-1.865c0-0.019 0.008-0.038 0.023-0.054s0.035-0.023 0.054-0.023zM0.986 0.537v0.315h0.365c0.046 0 0.081-0.011 0.107-0.042 0.027-0.027 0.042-0.065 0.042-0.111s-0.015-0.088-0.042-0.119c-0.027-0.031-0.065-0.046-0.111-0.046h-0.361z"></path>
<path d="M3.304 1.458h1.147c0.023 0 0.038 0.008 0.054 0.023s0.023 0.035 0.023 0.054v0.407c0 0.023-0.008 0.038-0.023 0.054s-0.035 0.023-0.054 0.023h-1.819c-0.023 0-0.038-0.008-0.054-0.023s-0.023-0.035-0.023-0.054v-1.861c0-0.019 0.008-0.038 0.023-0.054s0.035-0.023 0.054-0.023h1.792c0.023 0 0.038 0.008 0.054 0.023s0.023 0.035 0.023 0.054v0.407c0 0.023-0.008 0.038-0.023 0.054s-0.035 0.023-0.054 0.023h-1.12v0.18h0.963c0.023 0 0.038 0.008 0.054 0.023s0.023 0.035 0.023 0.054v0.376c0 0.023-0.008 0.038-0.023 0.054s-0.035 0.023-0.054 0.023h-0.963v0.184z"></path>
<path d="M7.11 1.926c0.004 0.008 0.004 0.019 0.004 0.031 0 0.015-0.008 0.027-0.019 0.038s-0.027 0.019-0.046 0.019h-0.652c-0.058 0-0.1-0.023-0.123-0.073l-0.249-0.564h-0.242v0.564c0 0.023-0.008 0.038-0.023 0.054s-0.035 0.023-0.054 0.023h-0.622c-0.023 0-0.038-0.008-0.054-0.023s-0.023-0.035-0.023-0.054v-1.861c0-0.019 0.008-0.038 0.023-0.054s0.035-0.023 0.054-0.023h1.12c0.265 0 0.472 0.061 0.625 0.188s0.23 0.295 0.23 0.51c0 0.261-0.1 0.449-0.303 0.568l0.353 0.656zM5.782 0.537v0.307h0.361c0.042 0 0.077-0.015 0.1-0.042s0.035-0.061 0.035-0.104c0-0.042-0.011-0.081-0.035-0.111s-0.054-0.046-0.1-0.046h-0.361z"></path>
<path d="M7.555 0.004h1.83c0.019 0 0.038 0.008 0.054 0.023s0.023 0.035 0.023 0.054v0.437c0 0.023-0.008 0.038-0.023 0.054s-0.035 0.023-0.054 0.023h-1.132v0.184h0.944c0.019 0 0.038 0.008 0.054 0.023s0.023 0.035 0.023 0.054v0.434c0 0.023-0.008 0.038-0.023 0.054s-0.035 0.023-0.054 0.023h-0.944v0.572c0 0.023-0.008 0.038-0.023 0.054s-0.035 0.023-0.054 0.023h-0.622c-0.023 0-0.038-0.008-0.054-0.023s-0.023-0.035-0.023-0.054v-1.857c0-0.019 0.008-0.038 0.023-0.054s0.035-0.023 0.054-0.023z"></path>
<path d="M11.933 0.84v0.342c0 0.192-0.050 0.353-0.146 0.483s-0.223 0.223-0.376 0.276c-0.157 0.054-0.338 0.081-0.549 0.081s-0.395-0.027-0.549-0.081c-0.157-0.054-0.28-0.146-0.376-0.276s-0.146-0.292-0.146-0.487v-0.334c0-0.284 0.1-0.495 0.299-0.633 0.2-0.142 0.457-0.211 0.771-0.211s0.576 0.069 0.771 0.211c0.2 0.138 0.299 0.349 0.299 0.629zM10.567 0.794v0.434c0 0.073 0.027 0.13 0.081 0.173 0.054 0.038 0.123 0.061 0.215 0.061s0.161-0.019 0.215-0.061c0.054-0.042 0.081-0.1 0.081-0.173v-0.434c0-0.073-0.027-0.13-0.081-0.173s-0.123-0.061-0.215-0.061c-0.092 0-0.161 0.019-0.215 0.061-0.054 0.038-0.081 0.096-0.081 0.173z"></path>
<path d="M14.454 1.926c0.004 0.008 0.008 0.019 0.008 0.031 0 0.015-0.008 0.027-0.019 0.038s-0.027 0.019-0.046 0.019h-0.652c-0.058 0-0.1-0.023-0.123-0.073l-0.253-0.572h-0.242v0.564c0 0.023-0.008 0.038-0.023 0.054s-0.035 0.023-0.054 0.023h-0.622c-0.023 0-0.038-0.008-0.054-0.023s-0.023-0.035-0.023-0.054v-1.853c0-0.019 0.008-0.038 0.023-0.054s0.035-0.023 0.054-0.023h1.117c0.265 0 0.472 0.061 0.625 0.188s0.23 0.295 0.23 0.51c0 0.261-0.1 0.449-0.303 0.568l0.357 0.656zM13.126 0.537v0.307h0.361c0.042 0 0.077-0.015 0.1-0.042s0.035-0.061 0.035-0.104c0-0.042-0.011-0.081-0.035-0.111s-0.054-0.046-0.1-0.046h-0.361z"></path>
<path d="M16.257 0.004h0.526c0.019 0 0.038 0.008 0.054 0.023s0.023 0.035 0.023 0.054v1.861c0 0.023-0.008 0.038-0.023 0.054s-0.035 0.023-0.054 0.023h-0.522c-0.023 0-0.038-0.008-0.054-0.023s-0.023-0.035-0.023-0.054v-0.894l-0.211 0.414c-0.011 0.023-0.031 0.042-0.054 0.054s-0.046 0.019-0.069 0.019h-0.196c-0.035 0-0.061-0.008-0.081-0.027-0.023-0.019-0.035-0.031-0.042-0.046l-0.211-0.414v0.89c0 0.023-0.008 0.038-0.023 0.054s-0.035 0.023-0.054 0.023h-0.522c-0.023 0-0.038-0.008-0.054-0.023s-0.023-0.035-0.023-0.054v-1.857c0-0.019 0.008-0.038 0.023-0.054s0.035-0.023 0.054-0.023h0.526c0.054 0 0.096 0.027 0.123 0.077l0.376 0.691 0.376-0.691c0.038-0.050 0.081-0.077 0.134-0.077z"></path>
<path d="M17.658 2.018h-0.545c-0.019 0-0.031-0.008-0.046-0.019-0.012-0.012-0.019-0.023-0.019-0.035s0-0.019 0.004-0.027l0.629-1.838c0.019-0.061 0.061-0.096 0.13-0.096h0.802c0.069 0 0.111 0.031 0.13 0.096l0.629 1.838c0 0.004 0.004 0.015 0.004 0.027s-0.008 0.023-0.019 0.035c-0.012 0.012-0.027 0.019-0.046 0.019h-0.545c-0.061 0-0.104-0.031-0.13-0.096l-0.073-0.2h-0.702l-0.073 0.2c-0.023 0.061-0.065 0.096-0.13 0.096zM18.417 1.159l-0.203-0.599-0.203 0.599h0.407z"></path>
<path d="M21.019 0.004h0.537c0.023 0 0.038 0.008 0.054 0.023s0.023 0.035 0.023 0.054v1.861c0 0.023-0.008 0.038-0.023 0.054s-0.035 0.023-0.054 0.023h-0.464c-0.046 0-0.084-0.019-0.115-0.061l-0.629-0.798v0.783c0 0.023-0.008 0.038-0.023 0.054s-0.035 0.023-0.054 0.023h-0.537c-0.023 0-0.038-0.008-0.054-0.023s-0.023-0.035-0.023-0.054v-1.861c0-0.019 0.008-0.038 0.023-0.054s0.035-0.023 0.054-0.023h0.468c0.046 0 0.084 0.019 0.111 0.058l0.629 0.867v-0.848c0-0.019 0.008-0.038 0.023-0.054 0.012-0.015 0.031-0.023 0.054-0.023z"></path>
<path d="M22.834 0.794v0.434c0 0.073 0.027 0.13 0.081 0.173 0.054 0.038 0.123 0.061 0.207 0.061s0.146-0.012 0.184-0.038c0.038-0.027 0.069-0.061 0.096-0.111s0.061-0.073 0.104-0.073h0.622c0.015 0 0.031 0.008 0.046 0.019 0.012 0.012 0.019 0.027 0.019 0.042 0 0.177-0.084 0.338-0.253 0.48-0.084 0.073-0.196 0.13-0.338 0.173-0.142 0.046-0.307 0.065-0.495 0.065-0.192 0-0.364-0.027-0.518-0.084-0.157-0.058-0.284-0.15-0.38-0.28-0.1-0.13-0.146-0.288-0.146-0.48v-0.33c0-0.188 0.050-0.349 0.146-0.48 0.184-0.242 0.491-0.364 0.925-0.364 0.177 0 0.334 0.023 0.472 0.065 0.142 0.046 0.253 0.104 0.338 0.173 0.169 0.146 0.253 0.307 0.253 0.48 0 0.015-0.008 0.031-0.019 0.042s-0.027 0.019-0.046 0.019h-0.622c-0.042 0-0.077-0.023-0.104-0.073s-0.058-0.084-0.096-0.111c-0.038-0.027-0.1-0.038-0.184-0.038s-0.153 0.019-0.207 0.061c-0.058 0.042-0.084 0.1-0.084 0.176z"></path>
<path d="M25.331 1.458h1.147c0.023 0 0.038 0.008 0.054 0.023s0.023 0.035 0.023 0.054v0.407c0 0.023-0.008 0.038-0.023 0.054s-0.035 0.023-0.054 0.023h-1.819c-0.023 0-0.038-0.008-0.054-0.023s-0.023-0.035-0.023-0.054v-1.861c0-0.019 0.008-0.038 0.023-0.054s0.035-0.023 0.054-0.023h1.792c0.023 0 0.038 0.008 0.054 0.023s0.023 0.035 0.023 0.054v0.407c0 0.023-0.008 0.038-0.023 0.054s-0.035 0.023-0.054 0.023h-1.12v0.18h0.963c0.023 0 0.038 0.008 0.054 0.023s0.023 0.035 0.023 0.054v0.376c0 0.023-0.008 0.038-0.023 0.054s-0.035 0.023-0.054 0.023h-0.963v0.184z"></path>
<path d="M0.077 2.521h1.988c0.023 0 0.038 0.008 0.054 0.023s0.023 0.035 0.023 0.054v0.464c0 0.023-0.008 0.038-0.023 0.054s-0.035 0.023-0.054 0.023h-0.618v1.32c0 0.023-0.008 0.038-0.023 0.054s-0.035 0.023-0.054 0.023h-0.595c-0.023 0-0.038-0.008-0.054-0.023s-0.023-0.035-0.023-0.054v-1.32h-0.622c-0.023 0-0.038-0.008-0.054-0.023s-0.023-0.035-0.023-0.054v-0.464c0-0.019 0.008-0.038 0.023-0.054s0.035-0.023 0.054-0.023z"></path>
<path d="M3.304 3.975h1.147c0.023 0 0.038 0.008 0.054 0.023s0.023 0.035 0.023 0.054v0.407c0 0.023-0.008 0.038-0.023 0.054s-0.035 0.023-0.054 0.023h-1.819c-0.023 0-0.038-0.008-0.054-0.023s-0.023-0.035-0.023-0.054v-1.861c0-0.019 0.008-0.038 0.023-0.054s0.035-0.023 0.054-0.023h1.792c0.023 0 0.038 0.008 0.054 0.023s0.023 0.035 0.023 0.054v0.407c0 0.023-0.008 0.038-0.023 0.054s-0.035 0.023-0.054 0.023h-1.12v0.18h0.963c0.023 0 0.038 0.008 0.054 0.023s0.023 0.035 0.023 0.054v0.376c0 0.023-0.008 0.038-0.023 0.054s-0.035 0.023-0.054 0.023h-0.963v0.184z"></path>
<path d="M5.702 3.311v0.434c0 0.073 0.027 0.13 0.081 0.173 0.054 0.038 0.123 0.061 0.207 0.061s0.146-0.011 0.184-0.038c0.038-0.027 0.069-0.061 0.096-0.111s0.061-0.073 0.104-0.073h0.622c0.019 0 0.031 0.008 0.046 0.019 0.011 0.011 0.019 0.027 0.019 0.042 0 0.176-0.084 0.338-0.253 0.48-0.084 0.073-0.196 0.13-0.338 0.173-0.142 0.046-0.307 0.065-0.495 0.065-0.192 0-0.364-0.027-0.518-0.084-0.157-0.058-0.284-0.15-0.38-0.28-0.1-0.13-0.146-0.288-0.146-0.48v-0.33c0-0.188 0.050-0.349 0.146-0.48 0.184-0.242 0.491-0.365 0.925-0.365 0.176 0 0.334 0.023 0.472 0.065 0.142 0.046 0.253 0.104 0.338 0.173 0.169 0.146 0.253 0.307 0.253 0.48 0 0.015-0.008 0.031-0.019 0.042s-0.027 0.019-0.046 0.019h-0.622c-0.042 0-0.077-0.023-0.104-0.073s-0.058-0.084-0.096-0.111c-0.038-0.027-0.1-0.038-0.184-0.038s-0.153 0.019-0.207 0.061c-0.058 0.042-0.084 0.1-0.084 0.176z"></path>
<path d="M8.779 2.521h0.595c0.019 0 0.038 0.008 0.054 0.023s0.023 0.035 0.023 0.054v1.861c0 0.023-0.008 0.038-0.023 0.054s-0.035 0.023-0.054 0.023h-0.595c-0.023 0-0.038-0.008-0.054-0.023s-0.023-0.035-0.023-0.054v-0.614h-0.576v0.614c0 0.023-0.008 0.038-0.023 0.054s-0.035 0.023-0.054 0.023h-0.595c-0.023 0-0.038-0.008-0.054-0.023s-0.023-0.035-0.023-0.058v-1.857c0-0.019 0.008-0.038 0.023-0.054s0.035-0.023 0.054-0.023h0.595c0.019 0 0.038 0.008 0.054 0.023s0.023 0.035 0.023 0.054v0.591h0.576v-0.591c0-0.019 0.008-0.038 0.023-0.054s0.035-0.023 0.054-0.023z"></path>
<path d="M11.227 2.521h0.537c0.019 0 0.038 0.008 0.054 0.023s0.023 0.035 0.023 0.054v1.861c0 0.023-0.008 0.038-0.023 0.054s-0.035 0.023-0.054 0.023h-0.464c-0.046 0-0.084-0.019-0.115-0.061l-0.629-0.798v0.783c0 0.023-0.008 0.038-0.023 0.054s-0.035 0.023-0.054 0.023h-0.537c-0.023 0-0.038-0.008-0.054-0.023s-0.023-0.035-0.023-0.054v-1.861c0-0.019 0.008-0.038 0.023-0.054s0.035-0.023 0.054-0.023h0.468c0.046 0 0.084 0.019 0.111 0.058l0.629 0.867v-0.848c0-0.019 0.008-0.038 0.023-0.054s0.031-0.023 0.054-0.023z"></path>
<path d="M14.381 3.357v0.341c0 0.192-0.050 0.353-0.146 0.483s-0.223 0.223-0.376 0.276c-0.157 0.054-0.338 0.081-0.549 0.081s-0.395-0.027-0.549-0.081c-0.157-0.054-0.28-0.146-0.376-0.276s-0.146-0.292-0.146-0.487v-0.33c0-0.284 0.1-0.495 0.299-0.633 0.2-0.142 0.457-0.211 0.771-0.211 0.318 0 0.576 0.069 0.775 0.211 0.196 0.134 0.295 0.345 0.295 0.625zM13.015 3.311v0.434c0 0.073 0.027 0.13 0.081 0.173 0.054 0.038 0.123 0.061 0.215 0.061s0.161-0.019 0.215-0.061c0.054-0.042 0.081-0.1 0.081-0.173v-0.434c0-0.073-0.027-0.13-0.081-0.173s-0.123-0.061-0.215-0.061c-0.092 0-0.161 0.019-0.215 0.061-0.054 0.038-0.081 0.096-0.081 0.173z"></path>
<path d="M15.712 3.944h0.982c0.023 0 0.038 0.008 0.054 0.023s0.023 0.035 0.023 0.054v0.434c0 0.023-0.008 0.038-0.023 0.054s-0.035 0.023-0.054 0.023h-1.681c-0.023 0-0.038-0.008-0.054-0.023s-0.023-0.035-0.023-0.054v-1.857c0-0.019 0.008-0.038 0.023-0.054s0.035-0.023 0.054-0.023h0.622c0.023 0 0.038 0.008 0.054 0.023s0.023 0.035 0.023 0.054v1.347z"></path>
<path d="M19.277 3.357v0.341c0 0.192-0.050 0.353-0.146 0.483s-0.223 0.223-0.376 0.276c-0.157 0.054-0.338 0.081-0.549 0.081s-0.395-0.027-0.549-0.081c-0.157-0.054-0.28-0.146-0.376-0.276s-0.146-0.292-0.146-0.487v-0.33c0-0.284 0.1-0.495 0.299-0.633 0.2-0.142 0.457-0.211 0.775-0.211s0.576 0.069 0.771 0.211c0.196 0.134 0.295 0.345 0.295 0.625zM17.911 3.311v0.434c0 0.073 0.027 0.13 0.081 0.173 0.054 0.038 0.123 0.061 0.215 0.061s0.161-0.019 0.215-0.061c0.054-0.042 0.081-0.1 0.081-0.173v-0.434c0-0.073-0.027-0.13-0.081-0.173s-0.123-0.061-0.215-0.061c-0.092 0-0.161 0.019-0.215 0.061-0.054 0.038-0.081 0.096-0.081 0.173z"></path>
<path d="M20.854 3.296h0.836c0.023 0 0.038 0.008 0.054 0.023s0.023 0.035 0.023 0.054v0.303c0 0.292-0.1 0.506-0.299 0.648s-0.46 0.211-0.787 0.211c-0.326 0-0.587-0.069-0.787-0.207s-0.299-0.349-0.299-0.637v-0.33c0-0.146 0.027-0.272 0.084-0.38 0.058-0.111 0.134-0.2 0.238-0.265 0.2-0.13 0.453-0.196 0.764-0.196 0.153 0 0.295 0.015 0.422 0.050s0.23 0.077 0.307 0.127c0.077 0.050 0.142 0.104 0.196 0.165 0.096 0.104 0.142 0.196 0.142 0.272 0 0.015-0.008 0.031-0.019 0.042s-0.027 0.019-0.046 0.019h-0.652c-0.038 0-0.065-0.008-0.084-0.027-0.061-0.061-0.142-0.092-0.242-0.092-0.104 0-0.184 0.019-0.242 0.058s-0.088 0.088-0.088 0.146v0.464c0 0.073 0.031 0.13 0.088 0.169 0.058 0.042 0.138 0.061 0.242 0.061s0.184-0.019 0.242-0.061c0.058-0.042 0.084-0.088 0.088-0.146h-0.18c-0.023 0-0.038-0.008-0.054-0.023s-0.023-0.035-0.023-0.054v-0.318c0-0.019 0.008-0.038 0.023-0.054 0.012-0.015 0.031-0.023 0.054-0.023z"></path>
<path d="M23.551 2.521h0.602c0.019 0 0.031 0.008 0.046 0.019 0.012 0.011 0.019 0.027 0.019 0.038 0 0.015-0.004 0.027-0.008 0.038l-0.729 1.197v0.641c0 0.023-0.008 0.038-0.023 0.054s-0.035 0.023-0.054 0.023h-0.614c-0.023 0-0.038-0.008-0.054-0.023s-0.023-0.035-0.023-0.054v-0.641l-0.721-1.201c-0.008-0.011-0.008-0.023-0.008-0.038 0-0.011 0.008-0.027 0.019-0.038s0.027-0.019 0.046-0.019h0.606c0.054 0 0.092 0.023 0.119 0.065l0.326 0.572 0.334-0.564c0.023-0.046 0.061-0.069 0.115-0.069z"></path>
</symbol>
<symbol id="icon-foto-kader" viewBox="0 0 32 32">
<title>foto-kader</title>
<path fill="#ccc" style="fill: var(--color1, #ccc)" d="M6.925 0h-6.65c-0.15 0-0.275 0.125-0.275 0.275v6.65c0 0.15 0.125 0.275 0.275 0.275h1.85c0.15 0 0.275-0.125 0.275-0.275v-4.525h4.525c0.15 0 0.275-0.125 0.275-0.275v-1.85c0-0.15-0.125-0.275-0.275-0.275z"></path>
<path fill="#ccc" style="fill: var(--color1, #ccc)" d="M25.075 32h6.65c0.15 0 0.275-0.125 0.275-0.275v-6.65c0-0.15-0.125-0.275-0.275-0.275h-1.85c-0.15 0-0.275 0.125-0.275 0.275v4.525h-4.525c-0.15 0-0.275 0.125-0.275 0.275v1.85c0 0.15 0.125 0.275 0.275 0.275z"></path>
<path fill="#ccc" style="fill: var(--color1, #ccc)" d="M0 25.075v6.65c0 0.15 0.125 0.275 0.275 0.275h6.65c0.15 0 0.275-0.125 0.275-0.275v-1.85c0-0.15-0.125-0.275-0.275-0.275h-4.525v-4.525c0-0.15-0.125-0.275-0.275-0.275h-1.85c-0.15 0-0.275 0.125-0.275 0.275z"></path>
<path fill="#ccc" style="fill: var(--color1, #ccc)" d="M32 6.925v-6.65c0-0.15-0.125-0.275-0.275-0.275h-6.65c-0.15 0-0.275 0.125-0.275 0.275v1.85c0 0.15 0.125 0.275 0.275 0.275h4.525v4.525c0 0.15 0.125 0.275 0.275 0.275h1.85c0.15 0 0.275-0.125 0.275-0.275z"></path>
</symbol>
<symbol id="icon-hook-end" viewBox="0 0 11 32">
<title>hook-end</title>
<path stroke-linejoin="miter" stroke-linecap="butt" stroke-miterlimit="10" stroke-width="4.4448" d="M10.165 8.982v-8h-10.184"></path>
<path stroke-linejoin="miter" stroke-linecap="butt" stroke-miterlimit="10" stroke-width="4.4448" d="M-0.019 30.982h10.184v-8"></path>
</symbol>
<symbol id="icon-hook-start" viewBox="0 0 11 32">
<title>hook-start</title>
<path stroke-linejoin="miter" stroke-linecap="butt" stroke-miterlimit="10" stroke-width="4.4448" d="M1.274 23.013v8h10.184"></path>
<path stroke-linejoin="miter" stroke-linecap="butt" stroke-miterlimit="10" stroke-width="4.4448" d="M11.459 1.013h-10.184v8"></path>
</symbol>
<symbol id="icon-PLT_logo_voluit_met_vierkant" viewBox="0 0 90 32">
<title>PLT_logo_voluit_met_vierkant</title>
<path fill="#000" style="fill: var(--color2, #000)" d="M3.478 30.002h3.321c0.072 0 0.133 0.024 0.187 0.078s0.079 0.115 0.079 0.187v1.467c0 0.072-0.024 0.133-0.079 0.187s-0.115 0.078-0.187 0.078h-5.688c-0.072 0-0.133-0.024-0.187-0.078s-0.079-0.115-0.079-0.187v-6.285c0-0.072 0.024-0.133 0.079-0.187s0.115-0.078 0.187-0.078h2.101c0.072 0 0.133 0.024 0.187 0.078s0.079 0.115 0.079 0.187v4.552z"></path>
<path fill="#000" style="fill: var(--color2, #000)" d="M10.053 32h-1.841c-0.060 0-0.109-0.018-0.151-0.060s-0.060-0.085-0.060-0.121c0-0.036 0.006-0.066 0.012-0.091l2.119-6.219c0.060-0.211 0.205-0.32 0.441-0.32h2.705c0.235 0 0.38 0.109 0.441 0.32l2.119 6.219c0.006 0.018 0.012 0.048 0.012 0.091 0 0.036-0.024 0.078-0.060 0.121-0.042 0.042-0.091 0.060-0.151 0.060h-1.841c-0.205 0-0.356-0.109-0.441-0.332l-0.242-0.682h-2.373l-0.242 0.682c-0.091 0.223-0.235 0.332-0.447 0.332zM12.619 29.090l-0.688-2.023-0.688 2.023h1.377z"></path>
<path fill="#000" style="fill: var(--color2, #000)" d="M23.879 29.857c0 1.425-0.918 2.143-2.747 2.143h-4.009c-0.072 0-0.133-0.024-0.187-0.078s-0.078-0.115-0.078-0.187v-6.285c0-0.072 0.024-0.133 0.078-0.187s0.115-0.078 0.187-0.078h3.912c0.924 0 1.6 0.169 2.041 0.501s0.658 0.839 0.658 1.515v0.030c0 0.314-0.085 0.58-0.254 0.797-0.169 0.223-0.344 0.362-0.525 0.417 0.254 0.078 0.471 0.248 0.652 0.513s0.272 0.561 0.272 0.9zM20.993 27.605c0.066-0.097 0.103-0.199 0.103-0.314s-0.036-0.217-0.103-0.302c-0.066-0.085-0.169-0.127-0.296-0.127h-1.304v0.888h1.304c0.127-0.006 0.229-0.048 0.296-0.145zM19.393 29.374v0.954h1.413c0.151 0 0.26-0.048 0.338-0.151 0.072-0.103 0.115-0.211 0.115-0.338v-0.012c0-0.121-0.042-0.229-0.121-0.32s-0.187-0.139-0.326-0.139h-1.419z"></path>
<path fill="#000" style="fill: var(--color2, #000)" d="M2.741 2.639v3.321c0 0.072-0.024 0.133-0.079 0.187s-0.115 0.079-0.187 0.079h-1.467c-0.072 0-0.133-0.024-0.187-0.079s-0.079-0.115-0.079-0.187v-5.688c0-0.072 0.024-0.133 0.079-0.187s0.115-0.079 0.187-0.079h6.291c0.072 0 0.133 0.024 0.187 0.079s0.079 0.115 0.079 0.187v2.101c0 0.072-0.024 0.133-0.079 0.187s-0.115 0.079-0.187 0.079h-4.559z"></path>
<path fill="#000" style="fill: var(--color2, #000)" d="M30.014 1.998h-3.321c-0.072 0-0.133-0.024-0.187-0.079s-0.078-0.115-0.078-0.187v-1.467c0-0.072 0.024-0.133 0.078-0.187s0.115-0.079 0.187-0.079h5.688c0.072 0 0.133 0.024 0.187 0.079s0.078 0.115 0.078 0.187v6.291c0 0.072-0.024 0.133-0.078 0.187s-0.115 0.079-0.187 0.079h-2.101c-0.072 0-0.133-0.024-0.187-0.079s-0.078-0.115-0.078-0.187v-4.559z"></path>
<path fill="#000" style="fill: var(--color2, #000)" d="M30.75 29.361v-3.321c0-0.072 0.024-0.133 0.078-0.187s0.115-0.078 0.187-0.078h1.467c0.072 0 0.133 0.024 0.187 0.078s0.078 0.115 0.078 0.187v5.688c0 0.072-0.024 0.133-0.078 0.187s-0.115 0.078-0.187 0.078h-6.291c-0.072 0-0.133-0.024-0.187-0.078s-0.078-0.115-0.078-0.187v-2.101c0-0.072 0.024-0.133 0.078-0.187s0.115-0.078 0.187-0.078h4.558z"></path>
<path fill="#ed1c24" style="fill: var(--color3, #ed1c24)" d="M0.972 8.417h3.641c0.924 0 1.654 0.223 2.192 0.67s0.809 1.020 0.809 1.721c0 0.7-0.229 1.256-0.682 1.672-0.453 0.411-1.226 0.616-2.319 0.616h-1.286v1.872c0 0.072-0.024 0.133-0.079 0.187s-0.115 0.079-0.187 0.079h-2.089c-0.072 0-0.133-0.024-0.187-0.079s-0.079-0.115-0.079-0.187v-6.285c0-0.072 0.024-0.133 0.079-0.187 0.054-0.048 0.115-0.079 0.187-0.079zM3.339 10.228v1.069h1.238c0.151 0 0.272-0.048 0.362-0.139 0.097-0.091 0.139-0.217 0.139-0.38s-0.048-0.296-0.139-0.399c-0.091-0.103-0.211-0.157-0.368-0.157h-1.232z"></path>
<path fill="#ed1c24" style="fill: var(--color3, #ed1c24)" d="M11.164 13.337h3.882c0.072 0 0.133 0.024 0.187 0.079s0.079 0.115 0.079 0.187v1.371c0 0.072-0.024 0.133-0.079 0.187s-0.115 0.079-0.187 0.079h-6.146c-0.072 0-0.133-0.024-0.187-0.079s-0.079-0.115-0.079-0.187v-6.291c0-0.072 0.024-0.133 0.079-0.187s0.115-0.079 0.187-0.079h6.056c0.072 0 0.133 0.024 0.187 0.079s0.079 0.115 0.079 0.187v1.371c0 0.072-0.024 0.133-0.079 0.187s-0.115 0.079-0.187 0.079h-3.786v0.61h3.254c0.072 0 0.133 0.024 0.187 0.079s0.079 0.115 0.079 0.187v1.268c0 0.072-0.024 0.133-0.079 0.187s-0.115 0.079-0.187 0.079h-3.254v0.61z"></path>
<path fill="#ed1c24" style="fill: var(--color3, #ed1c24)" d="M24.036 14.931c0.012 0.024 0.018 0.060 0.018 0.109s-0.018 0.091-0.060 0.133c-0.042 0.042-0.091 0.060-0.151 0.060h-2.21c-0.193 0-0.332-0.079-0.411-0.242l-0.857-1.926h-0.815v1.908c0 0.072-0.024 0.133-0.078 0.187s-0.115 0.079-0.187 0.079h-2.101c-0.072 0-0.133-0.024-0.187-0.079s-0.078-0.115-0.078-0.187v-6.291c0-0.072 0.024-0.133 0.078-0.187s0.115-0.079 0.187-0.079h3.786c0.888 0 1.594 0.211 2.113 0.634s0.779 0.996 0.779 1.721c0 0.881-0.338 1.521-1.020 1.92l1.195 2.24zM19.544 10.228v1.032h1.22c0.145 0 0.254-0.048 0.332-0.139 0.078-0.097 0.115-0.211 0.115-0.356s-0.036-0.266-0.115-0.374c-0.072-0.109-0.187-0.163-0.338-0.163h-1.214z"></path>
<path fill="#ed1c24" style="fill: var(--color3, #ed1c24)" d="M25.546 8.417h6.189c0.072 0 0.133 0.024 0.187 0.079s0.078 0.115 0.078 0.187v1.479c0 0.072-0.024 0.133-0.078 0.187s-0.115 0.079-0.187 0.079h-3.828v0.622h3.194c0.072 0 0.133 0.024 0.187 0.079s0.078 0.115 0.078 0.187v1.467c0 0.072-0.024 0.133-0.078 0.187s-0.115 0.079-0.187 0.079h-3.194v1.926c0 0.072-0.024 0.133-0.078 0.187s-0.115 0.079-0.187 0.079h-2.101c-0.072 0-0.133-0.024-0.187-0.079s-0.078-0.115-0.078-0.187v-6.291c0-0.072 0.024-0.133 0.078-0.187 0.060-0.048 0.121-0.079 0.193-0.079z"></path>
<path fill="#ed1c24" style="fill: var(--color3, #ed1c24)" d="M40.338 11.248v1.159c0 0.652-0.163 1.195-0.489 1.63s-0.749 0.749-1.274 0.93-1.147 0.278-1.86 0.278c-0.712 0-1.334-0.091-1.86-0.278-0.525-0.181-0.948-0.495-1.274-0.93s-0.489-0.99-0.489-1.654v-1.123c0-0.954 0.338-1.672 1.008-2.143 0.67-0.477 1.546-0.712 2.614-0.712s1.944 0.235 2.614 0.712c0.676 0.477 1.008 1.189 1.008 2.131zM35.725 11.091v1.473c0 0.254 0.091 0.447 0.266 0.58 0.181 0.133 0.423 0.205 0.725 0.205 0.308 0 0.549-0.066 0.725-0.205 0.181-0.139 0.266-0.332 0.266-0.586v-1.455c0-0.254-0.091-0.447-0.266-0.586-0.181-0.139-0.423-0.205-0.725-0.205-0.308 0-0.549 0.066-0.725 0.205-0.175 0.127-0.266 0.32-0.266 0.574z"></path>
<path fill="#ed1c24" style="fill: var(--color3, #ed1c24)" d="M48.857 14.931c0.012 0.024 0.018 0.060 0.018 0.109s-0.024 0.091-0.060 0.133c-0.042 0.042-0.091 0.060-0.151 0.060h-2.21c-0.193 0-0.332-0.079-0.411-0.242l-0.857-1.926h-0.815v1.908c0 0.072-0.024 0.133-0.078 0.187s-0.115 0.079-0.187 0.079h-2.101c-0.072 0-0.133-0.024-0.187-0.079s-0.078-0.115-0.078-0.187v-6.291c0-0.072 0.024-0.133 0.078-0.187s0.115-0.079 0.187-0.079h3.786c0.888 0 1.594 0.211 2.113 0.634s0.779 0.996 0.779 1.721c0 0.881-0.338 1.521-1.020 1.92l1.195 2.24zM44.371 10.228v1.032h1.214c0.145 0 0.254-0.048 0.332-0.139 0.078-0.097 0.115-0.211 0.115-0.356s-0.036-0.266-0.115-0.374c-0.072-0.109-0.187-0.163-0.338-0.163h-1.208z"></path>
<path fill="#ed1c24" style="fill: var(--color3, #ed1c24)" d="M54.962 8.417h1.781c0.072 0 0.133 0.024 0.187 0.079s0.078 0.115 0.078 0.187v6.291c0 0.072-0.024 0.133-0.078 0.187s-0.115 0.079-0.187 0.079h-1.763c-0.072 0-0.133-0.024-0.187-0.079s-0.078-0.115-0.078-0.187v-3.019l-0.712 1.401c-0.036 0.079-0.097 0.139-0.175 0.181s-0.157 0.060-0.235 0.060h-0.664c-0.109 0-0.199-0.030-0.272-0.091s-0.115-0.109-0.139-0.157l-0.7-1.395v3.019c0 0.072-0.024 0.133-0.078 0.187s-0.115 0.079-0.187 0.079h-1.763c-0.072 0-0.133-0.024-0.187-0.079s-0.078-0.115-0.078-0.187v-6.291c0-0.072 0.024-0.133 0.078-0.187s0.115-0.079 0.187-0.079h1.781c0.181 0 0.32 0.091 0.417 0.266l1.274 2.337 1.274-2.337c0.109-0.175 0.248-0.266 0.429-0.266z"></path>
<path fill="#ed1c24" style="fill: var(--color3, #ed1c24)" d="M59.701 15.233h-1.842c-0.060 0-0.109-0.018-0.151-0.060s-0.060-0.085-0.060-0.121c0-0.036 0.006-0.066 0.012-0.091l2.119-6.219c0.060-0.211 0.205-0.32 0.441-0.32h2.705c0.235 0 0.38 0.109 0.441 0.32l2.119 6.219c0.006 0.018 0.012 0.048 0.012 0.091 0 0.036-0.018 0.079-0.060 0.121s-0.091 0.060-0.151 0.060h-1.841c-0.205 0-0.356-0.109-0.441-0.332l-0.242-0.682h-2.373l-0.242 0.682c-0.091 0.223-0.242 0.332-0.447 0.332zM62.261 12.323l-0.688-2.023-0.688 2.023h1.377z"></path>
<path fill="#ed1c24" style="fill: var(--color3, #ed1c24)" d="M71.052 8.417h1.811c0.072 0 0.133 0.024 0.187 0.079s0.079 0.115 0.079 0.187v6.291c0 0.072-0.024 0.133-0.079 0.187s-0.115 0.079-0.187 0.079h-1.57c-0.157 0-0.284-0.066-0.386-0.205l-2.119-2.705v2.645c0 0.072-0.024 0.133-0.079 0.187s-0.115 0.079-0.187 0.079h-1.811c-0.072 0-0.133-0.024-0.187-0.079s-0.079-0.115-0.079-0.187v-6.291c0-0.072 0.024-0.133 0.079-0.187s0.115-0.079 0.187-0.079h1.576c0.157 0 0.284 0.066 0.38 0.193l2.119 2.928v-2.862c0-0.072 0.024-0.133 0.079-0.187 0.054-0.042 0.115-0.072 0.187-0.072z"></path>
<path fill="#ed1c24" style="fill: var(--color3, #ed1c24)" d="M77.192 11.091v1.473c0 0.254 0.091 0.447 0.266 0.58 0.181 0.133 0.411 0.205 0.7 0.205s0.495-0.042 0.628-0.127c0.127-0.085 0.242-0.211 0.326-0.374 0.091-0.163 0.205-0.248 0.344-0.248h2.101c0.060 0 0.109 0.018 0.151 0.060s0.060 0.091 0.060 0.151c0 0.592-0.284 1.135-0.857 1.63-0.284 0.242-0.664 0.441-1.141 0.592-0.471 0.151-1.032 0.223-1.672 0.223s-1.226-0.097-1.757-0.29c-0.531-0.193-0.96-0.507-1.292-0.948s-0.495-0.978-0.495-1.618v-1.123c0-0.64 0.163-1.177 0.495-1.624 0.622-0.821 1.666-1.232 3.128-1.232 0.592 0 1.123 0.072 1.594 0.223s0.851 0.344 1.141 0.592c0.574 0.489 0.857 1.032 0.857 1.63 0 0.060-0.018 0.109-0.060 0.151s-0.091 0.060-0.151 0.060h-2.101c-0.145 0-0.26-0.085-0.344-0.248-0.091-0.163-0.199-0.29-0.326-0.38-0.133-0.085-0.338-0.127-0.628-0.127s-0.525 0.066-0.7 0.205c-0.175 0.115-0.266 0.308-0.266 0.562z"></path>
<path fill="#ed1c24" style="fill: var(--color3, #ed1c24)" d="M85.633 13.337h3.882c0.072 0 0.133 0.024 0.187 0.079s0.079 0.115 0.079 0.187v1.371c0 0.072-0.024 0.133-0.079 0.187s-0.115 0.079-0.187 0.079h-6.152c-0.072 0-0.133-0.024-0.187-0.079s-0.079-0.115-0.079-0.187v-6.291c0-0.072 0.024-0.133 0.079-0.187s0.115-0.079 0.187-0.079h6.056c0.072 0 0.133 0.024 0.187 0.079s0.079 0.115 0.079 0.187v1.371c0 0.072-0.024 0.133-0.079 0.187s-0.115 0.079-0.187 0.079h-3.786v0.61h3.248c0.072 0 0.133 0.024 0.187 0.079s0.079 0.115 0.079 0.187v1.268c0 0.072-0.024 0.133-0.079 0.187s-0.115 0.079-0.187 0.079h-3.248v0.61z"></path>
<path fill="#ed1c24" style="fill: var(--color3, #ed1c24)" d="M0.266 16.755h6.714c0.072 0 0.133 0.024 0.187 0.078s0.079 0.115 0.079 0.187v1.57c0 0.072-0.024 0.133-0.079 0.187s-0.115 0.078-0.187 0.078h-2.095v4.456c0 0.072-0.024 0.133-0.079 0.187s-0.115 0.078-0.187 0.078h-1.998c-0.072 0-0.133-0.024-0.187-0.078s-0.079-0.115-0.079-0.187v-4.456h-2.089c-0.072 0-0.133-0.024-0.187-0.078s-0.079-0.121-0.079-0.187v-1.57c0-0.072 0.024-0.133 0.079-0.187 0.048-0.048 0.115-0.078 0.187-0.078z"></path>
<path fill="#ed1c24" style="fill: var(--color3, #ed1c24)" d="M11.164 21.675h3.882c0.072 0 0.133 0.024 0.187 0.078s0.079 0.115 0.079 0.187v1.371c0 0.072-0.024 0.133-0.079 0.187s-0.115 0.078-0.187 0.078h-6.146c-0.072 0-0.133-0.024-0.187-0.078s-0.079-0.115-0.079-0.187v-6.291c0-0.072 0.024-0.133 0.079-0.187s0.115-0.078 0.187-0.078h6.056c0.072 0 0.133 0.024 0.187 0.078s0.079 0.115 0.079 0.187v1.371c0 0.072-0.024 0.133-0.079 0.187s-0.115 0.078-0.187 0.078h-3.786v0.616h3.254c0.072 0 0.133 0.024 0.187 0.078s0.079 0.115 0.079 0.187v1.268c0 0.072-0.024 0.133-0.079 0.187s-0.115 0.078-0.187 0.078h-3.254v0.604z"></path>
<path fill="#ed1c24" style="fill: var(--color3, #ed1c24)" d="M19.272 19.429v1.473c0 0.254 0.091 0.447 0.266 0.58 0.181 0.133 0.411 0.205 0.7 0.205s0.495-0.042 0.628-0.127c0.127-0.085 0.235-0.211 0.326-0.374s0.205-0.248 0.344-0.248h2.101c0.060 0 0.109 0.018 0.151 0.060s0.060 0.091 0.060 0.151c0 0.592-0.284 1.135-0.857 1.63-0.284 0.241-0.664 0.441-1.141 0.592-0.471 0.151-1.032 0.223-1.672 0.223s-1.226-0.097-1.757-0.29c-0.531-0.193-0.96-0.507-1.292-0.948s-0.495-0.978-0.495-1.618v-1.123c0-0.64 0.163-1.177 0.495-1.624 0.622-0.821 1.666-1.232 3.128-1.232 0.592 0 1.123 0.072 1.594 0.223s0.851 0.344 1.141 0.592c0.574 0.489 0.857 1.032 0.857 1.63 0 0.060-0.024 0.109-0.060 0.151-0.042 0.042-0.091 0.060-0.151 0.060h-2.101c-0.145 0-0.26-0.085-0.344-0.248-0.091-0.163-0.199-0.29-0.326-0.38-0.133-0.085-0.338-0.127-0.628-0.127s-0.525 0.066-0.7 0.205c-0.175 0.115-0.266 0.308-0.266 0.561z"></path>
<path fill="#ed1c24" style="fill: var(--color3, #ed1c24)" d="M29.681 16.755h2.005c0.072 0 0.133 0.024 0.187 0.078s0.078 0.115 0.078 0.187v6.291c0 0.072-0.024 0.133-0.078 0.187s-0.115 0.078-0.187 0.078h-2.005c-0.072 0-0.133-0.024-0.187-0.078s-0.078-0.115-0.078-0.187v-2.071h-1.944v2.071c0 0.072-0.024 0.133-0.078 0.187s-0.115 0.078-0.187 0.078h-2.005c-0.072 0-0.133-0.024-0.187-0.072s-0.078-0.115-0.078-0.187v-6.297c0-0.072 0.024-0.133 0.078-0.187s0.115-0.078 0.187-0.078h2.005c0.072 0 0.133 0.024 0.187 0.078s0.078 0.115 0.078 0.187v1.998h1.944v-1.998c0-0.072 0.024-0.133 0.078-0.187 0.054-0.048 0.115-0.078 0.187-0.078z"></path>
<path fill="#ed1c24" style="fill: var(--color3, #ed1c24)" d="M37.953 16.755h1.811c0.072 0 0.133 0.024 0.187 0.078s0.078 0.115 0.078 0.187v6.291c0 0.072-0.024 0.133-0.078 0.187s-0.115 0.078-0.187 0.078h-1.57c-0.157 0-0.284-0.066-0.386-0.205l-2.119-2.705v2.651c0 0.072-0.024 0.133-0.078 0.187s-0.115 0.078-0.187 0.078h-1.811c-0.072 0-0.133-0.024-0.187-0.078s-0.078-0.115-0.078-0.187v-6.297c0-0.072 0.024-0.133 0.078-0.187s0.115-0.078 0.187-0.078h1.576c0.157 0 0.284 0.066 0.38 0.193l2.119 2.928v-2.862c0-0.072 0.024-0.133 0.078-0.187 0.054-0.042 0.115-0.072 0.187-0.072z"></path>
<path fill="#ed1c24" style="fill: var(--color3, #ed1c24)" d="M48.616 19.586v1.159c0 0.652-0.163 1.195-0.489 1.63s-0.749 0.749-1.274 0.93c-0.525 0.181-1.147 0.278-1.86 0.278s-1.334-0.091-1.86-0.278c-0.525-0.181-0.948-0.495-1.274-0.93s-0.489-0.99-0.489-1.654v-1.123c0-0.954 0.338-1.672 1.008-2.143 0.67-0.477 1.546-0.712 2.614-0.712s1.944 0.235 2.614 0.712c0.67 0.477 1.008 1.189 1.008 2.131zM43.997 19.429v1.473c0 0.254 0.091 0.447 0.266 0.58 0.181 0.133 0.423 0.205 0.725 0.205 0.308 0 0.549-0.066 0.725-0.205 0.181-0.139 0.266-0.332 0.266-0.586v-1.455c0-0.254-0.091-0.447-0.266-0.586-0.181-0.139-0.423-0.205-0.725-0.205-0.308 0-0.549 0.066-0.725 0.205-0.175 0.127-0.266 0.32-0.266 0.574z"></path>
<path fill="#ed1c24" style="fill: var(--color3, #ed1c24)" d="M53.12 21.579h3.321c0.072 0 0.133 0.024 0.187 0.078s0.078 0.115 0.078 0.187v1.467c0 0.072-0.024 0.133-0.078 0.187s-0.115 0.078-0.187 0.078h-5.688c-0.072 0-0.133-0.024-0.187-0.078s-0.078-0.115-0.078-0.187v-6.291c0-0.072 0.024-0.133 0.078-0.187s0.115-0.078 0.187-0.078h2.101c0.072 0 0.133 0.024 0.187 0.078s0.078 0.115 0.078 0.187v4.558z"></path>
<path fill="#ed1c24" style="fill: var(--color3, #ed1c24)" d="M65.165 19.586v1.159c0 0.652-0.163 1.195-0.489 1.63s-0.749 0.749-1.274 0.93c-0.525 0.181-1.147 0.278-1.86 0.278s-1.334-0.091-1.86-0.278c-0.525-0.181-0.948-0.495-1.274-0.93s-0.489-0.99-0.489-1.654v-1.123c0-0.954 0.338-1.672 1.008-2.143 0.67-0.477 1.546-0.712 2.614-0.712s1.944 0.235 2.614 0.712c0.67 0.477 1.008 1.189 1.008 2.131zM60.546 19.429v1.473c0 0.254 0.091 0.447 0.266 0.58 0.181 0.133 0.423 0.205 0.725 0.205 0.308 0 0.549-0.066 0.725-0.205 0.181-0.139 0.266-0.332 0.266-0.586v-1.455c0-0.254-0.091-0.447-0.266-0.586-0.181-0.139-0.423-0.205-0.725-0.205-0.308 0-0.549 0.066-0.725 0.205-0.175 0.127-0.266 0.32-0.266 0.574z"></path>
<path fill="#ed1c24" style="fill: var(--color3, #ed1c24)" d="M70.497 19.375h2.826c0.072 0 0.133 0.024 0.187 0.078s0.079 0.115 0.079 0.187v1.032c0 0.984-0.338 1.721-1.008 2.198s-1.558 0.718-2.663 0.718c-1.105 0-1.992-0.235-2.663-0.7s-1.008-1.183-1.008-2.162v-1.123c0-0.489 0.097-0.918 0.29-1.292s0.459-0.676 0.803-0.9c0.676-0.441 1.534-0.664 2.578-0.664 0.519 0 0.996 0.060 1.425 0.175s0.773 0.26 1.032 0.429c0.254 0.169 0.477 0.356 0.658 0.555 0.32 0.35 0.477 0.658 0.477 0.924 0 0.054-0.018 0.103-0.060 0.145s-0.091 0.060-0.151 0.060h-2.198c-0.133 0-0.223-0.030-0.284-0.085-0.199-0.205-0.477-0.308-0.821-0.308-0.35 0-0.622 0.066-0.815 0.193-0.199 0.127-0.296 0.296-0.296 0.495v1.564c0 0.248 0.097 0.435 0.29 0.574s0.471 0.205 0.821 0.205c0.356 0 0.628-0.072 0.815-0.211 0.193-0.139 0.29-0.302 0.296-0.489h-0.604c-0.072 0-0.133-0.024-0.187-0.078s-0.079-0.115-0.079-0.187v-1.081c0-0.072 0.024-0.133 0.079-0.187 0.048-0.036 0.109-0.066 0.181-0.066z"></path>
<path fill="#ed1c24" style="fill: var(--color3, #ed1c24)" d="M79.62 16.755h2.035c0.060 0 0.109 0.024 0.151 0.060 0.042 0.042 0.060 0.085 0.060 0.133s-0.012 0.091-0.030 0.127l-2.451 4.057v2.174c0 0.072-0.024 0.133-0.079 0.187s-0.115 0.078-0.187 0.078h-2.071c-0.072 0-0.133-0.024-0.187-0.078s-0.079-0.115-0.079-0.187v-2.174l-2.445-4.057c-0.018-0.036-0.030-0.078-0.030-0.127s0.018-0.091 0.060-0.133c0.042-0.042 0.091-0.060 0.151-0.060h2.053c0.181 0 0.314 0.072 0.398 0.223l1.099 1.926 1.129-1.908c0.109-0.157 0.248-0.241 0.423-0.241z"></path>
</symbol>
<symbol id="icon-dehaze" viewBox="0 0 24 24">
<title>dehaze</title>
<path d="M2.016 5.484h19.969v2.016h-19.969v-2.016zM2.016 10.5h19.969v2.016h-19.969v-2.016zM2.016 15.516h19.969v1.969h-19.969v-1.969z"></path>
</symbol>
<symbol id="icon-arrow_upward" viewBox="0 0 24 24">
<title>arrow_upward</title>
<path d="M3.984 12l8.016-8.016 8.016 8.016-1.453 1.406-5.578-5.578v12.188h-1.969v-12.188l-5.625 5.578z"></path>
</symbol>
</defs>
</svg>
